<svg width="92" height="92" viewBox="0 0 92 92" fill="none" xmlns="http://www.w3.org/2000/svg">
<g clip-path="url(#clip0)">
<path d="M88.6487 45.2144C87.5607 45.0013 86.4554 45.2242 85.5353 45.8423C84.7734 46.3543 84.2141 47.0869 83.9234 47.9415L79.1955 45.8768C79.2052 45.5533 79.2101 45.2344 79.2101 44.9238C79.2101 42.1441 78.862 39.3839 78.1753 36.71L80.2961 35.2715C81.6404 36.4488 83.5941 36.8008 85.3045 36.0577C87.6061 35.0576 88.7085 32.3941 87.814 29.9941L86.8157 27.3148C85.9106 24.8854 83.3069 23.6054 80.8887 24.3991C79.6649 24.8009 78.68 25.6583 78.1157 26.8131C77.7947 27.47 77.6328 28.1745 77.6325 28.8824L75.2265 29.2184C74.8968 28.6142 74.5367 28.0018 74.1522 27.3918C73.7544 26.7609 72.9203 26.5721 72.2897 26.9696C71.6587 27.3673 71.4696 28.2011 71.8673 28.832C72.3212 29.552 72.7372 30.2735 73.1036 30.9768C73.4714 31.6818 74.247 32.0817 75.0321 31.9723L79.3708 31.3666C79.7734 31.3104 80.1294 31.0758 80.3397 30.7279C80.55 30.3801 80.5925 29.9559 80.4553 29.5733C80.2689 29.054 80.2999 28.495 80.5421 27.9991C80.7837 27.5047 81.2059 27.1376 81.7311 26.9651C82.7498 26.6309 83.8947 27.2109 84.2849 28.258L85.2833 30.9373C85.6697 31.9742 85.1963 33.1602 84.228 33.5812C83.3011 33.9837 82.2097 33.6386 81.6881 32.7785C81.4963 32.4622 81.1829 32.2384 80.8215 32.1595C80.4601 32.0805 80.0819 32.1537 79.7756 32.3613L76.177 34.8023C75.5094 35.2549 75.2054 36.0826 75.4208 36.8618C76.1431 39.4774 76.5093 42.19 76.5093 44.924C76.5093 45.372 76.498 45.8401 76.476 46.3156C76.4402 47.0902 76.8927 47.8187 77.6017 48.1282L84.3485 51.0745C84.7237 51.2385 85.1531 51.2232 85.5155 51.0332C85.8783 50.8433 86.1351 50.499 86.214 50.0972L86.4278 49.0079C86.5024 48.6282 86.7204 48.3001 87.0416 48.0842C87.3627 47.8684 87.7487 47.7904 88.1286 47.8651C88.9127 48.0189 89.4255 48.7819 89.2717 49.5659L88.1653 55.2044C88.0882 55.5969 87.8601 55.9316 87.5227 56.147C87.1857 56.3621 86.7849 56.4273 86.3944 56.3319C85.6562 56.1506 85.1817 55.36 85.3368 54.5692L85.3663 54.4185C85.4459 54.0118 85.3344 53.591 85.0638 53.2772C84.7932 52.963 84.3904 52.7894 83.9796 52.8098L76.6815 53.1427C75.9089 53.1778 75.2256 53.696 74.9815 54.4327C74.3054 56.4741 73.408 58.4466 72.314 60.2949C71.9066 60.9831 71.9781 61.8556 72.4917 62.466L75.7204 66.3015C75.9602 66.5865 76.3072 66.7596 76.6788 66.7803C77.0506 66.8004 77.4146 66.6668 77.6842 66.4103C78.408 65.7219 79.508 65.6631 80.3003 66.2693C80.7291 66.5973 81.0042 67.0727 81.0756 67.6078C81.1469 68.1429 81.0051 68.6737 80.6773 69.1024L79.7418 70.3251C79.0696 71.2032 77.8143 71.4289 76.9434 70.8288C76.2033 70.3188 75.8867 69.3681 76.1737 68.517C76.3974 67.8543 76.0778 67.1305 75.4372 66.8492L70.7861 64.8064C70.0465 64.4811 69.1832 64.6649 68.6373 65.2639C66.5635 67.5412 64.1687 69.4814 61.5192 71.0307C60.85 71.4214 60.4847 72.1967 60.6096 72.9595L61.8003 80.2198C61.8666 80.6238 62.1125 80.976 62.4692 81.1773C62.8259 81.3786 63.2542 81.407 63.6346 81.2551L64.6649 80.8428C65.0363 80.6942 65.4414 80.7039 65.8055 80.8703C66.1693 81.0363 66.4419 81.3372 66.5737 81.7174C66.8226 82.4357 66.4162 83.2637 65.6679 83.5629L60.4065 85.6677C60.0351 85.8164 59.6302 85.8065 59.2659 85.6403C58.9022 85.4743 58.6295 85.1735 58.4977 84.7934C58.2488 84.0752 58.655 83.2471 59.4028 82.9479L59.5452 82.891C59.9301 82.7371 60.2229 82.4149 60.3396 82.0172C60.4561 81.6195 60.3837 81.1903 60.1428 80.8528L55.8981 74.9055C55.4491 74.2759 54.6427 73.9836 53.8929 74.1781C51.4182 74.8196 48.8599 75.145 46.2888 75.145C44.253 75.145 42.2121 74.9393 40.2233 74.5339C39.464 74.3792 38.6751 74.7128 38.2586 75.3648L34.01 82.0282C33.7898 82.3734 33.7383 82.7999 33.8699 83.1877C34.0012 83.5755 34.3015 83.8827 34.6863 84.023L34.8366 84.0779C35.3525 84.2658 35.7642 84.6436 35.996 85.1414C36.2277 85.6391 36.2516 86.1974 36.0637 86.7132C36.0095 86.8614 35.9819 87.0181 35.9819 87.1758C35.9819 87.6866 35.8312 88.0735 35.5575 88.2649C35.284 88.4565 34.8692 88.4658 34.389 88.2905L29.1698 86.3874C28.1246 86.0064 27.5683 84.8409 27.9292 83.7894C28.1016 83.2882 28.4725 82.8806 28.9737 82.6414C29.5032 82.3888 30.1188 82.3575 30.662 82.5556L30.7816 82.5991C31.1707 82.7414 31.6039 82.6965 31.956 82.478C32.3084 82.2594 32.5406 81.8912 32.5862 81.4792L33.4511 73.67C33.5363 72.9016 33.1308 72.1466 32.4423 71.7912C29.2852 70.1607 26.4604 68.0041 24.0472 65.382C23.5161 64.8044 22.6727 64.6159 21.9486 64.9132L15.5794 67.5251C15.2259 67.6701 14.9505 67.9578 14.8212 68.3172C14.6917 68.6765 14.7207 69.0739 14.9006 69.4108C15.3048 70.167 15.068 71.0933 14.35 71.5654C13.6098 72.0524 12.5735 71.8247 12.0405 71.0577L10.4091 68.7093C9.88589 67.9562 10.0105 66.9452 10.6927 66.4076C11.0454 66.1296 11.4831 66.0079 11.9242 66.0646C12.3688 66.1218 12.762 66.3498 13.0319 66.7066C13.276 67.0296 13.6523 67.2261 14.0571 67.2417C14.4604 67.2572 14.852 67.0905 15.1202 66.7871L19.6063 61.7166C20.1328 61.1215 20.2271 60.2537 19.8409 59.5562C19.3586 58.6862 18.9099 57.7701 18.5077 56.8331C18.2131 56.1481 17.4193 55.831 16.7338 56.1254C16.0486 56.4198 15.7317 57.2138 16.0259 57.899C16.3865 58.7382 16.7814 59.5629 17.203 60.357L13.9899 63.9892C13.4732 63.6723 12.8902 63.4656 12.2692 63.3856C11.1012 63.2357 9.94854 63.5554 9.02111 64.2861C7.21901 65.7063 6.85459 68.326 8.19145 70.25L9.82287 72.5982C11.1842 74.5578 13.8806 75.1064 15.8343 73.8216C17.2954 72.8607 17.9996 71.1846 17.7538 69.5519L22.4495 67.6261C24.861 70.1583 27.6338 72.2748 30.7054 73.9278L30.063 79.7284C29.292 79.7065 28.5164 79.8667 27.811 80.2032C26.65 80.7571 25.7849 81.7187 25.3751 82.9115C24.5393 85.3452 25.8266 88.0425 28.2447 88.9242L33.4639 90.8273C33.9877 91.0184 34.514 91.1127 35.0208 91.1127C35.7842 91.1127 36.5039 90.8985 37.1061 90.4771C38.051 89.8158 38.616 88.7078 38.6772 87.412C39.0274 86.2827 38.9471 85.0802 38.4444 84.0008C38.1223 83.3087 37.6497 82.7171 37.0649 82.2605L40.2357 77.2872C44.7892 78.1343 49.5372 78.0097 54.0244 76.9283L57.1057 81.2457C55.8929 82.3433 55.3891 84.0705 55.9457 85.6772C56.3216 86.7617 57.1023 87.6209 58.1441 88.0967C59.1714 88.5658 60.3612 88.5942 61.4096 88.1751L66.6711 86.0703C68.7734 85.2293 69.8517 82.9288 69.1257 80.8332C68.75 79.7488 67.9693 78.8894 66.9275 78.4136C66.0728 78.0232 65.1049 77.9377 64.2 78.162L63.3655 73.074C65.893 71.5377 68.1996 69.6706 70.2343 67.5138L73.3765 68.8939C73.2886 70.508 74.0371 72.1059 75.411 73.0528C77.4834 74.4808 80.3278 74.0033 81.8867 71.9664L82.8222 70.7437C83.5887 69.7421 83.9192 68.5019 83.7529 67.2516C83.5865 66.0014 82.9434 64.8907 81.9416 64.1242C80.4801 63.0059 78.5723 62.8554 77.0014 63.6294L74.9294 61.1678C75.8979 59.4627 76.7146 57.6668 77.3637 55.815L82.6602 55.5733C82.9228 57.1878 84.0993 58.549 85.7507 58.9545C86.8652 59.2283 88.0108 59.0393 88.9761 58.4231C89.9278 57.8155 90.5983 56.8319 90.8156 55.724L91.922 50.0855C92.3624 47.8401 90.8941 45.655 88.6487 45.2144Z" fill="#40BAFF"/>
<path d="M8.70029 48.862L13.7618 50.0311C13.872 50.7349 14.0083 51.4495 14.1685 52.1623C14.3095 52.7903 14.8669 53.2172 15.4849 53.217C15.5828 53.217 15.6824 53.2062 15.782 53.1839C16.5095 53.0204 16.967 52.2983 16.8035 51.5705C16.6176 50.7416 16.4665 49.9114 16.3549 49.1029C16.2485 48.3336 15.6698 47.6995 14.9152 47.5254L7.74658 45.8698C7.34813 45.7778 6.92826 45.8716 6.60687 46.1249C6.2853 46.3784 6.09607 46.7641 6.09247 47.1735L6.08509 48.0127C6.07663 48.9522 5.30548 49.7167 4.36581 49.7167C3.91839 49.7167 3.49834 49.5417 3.18343 49.2239C2.86835 48.906 2.69712 48.4846 2.70108 48.0372L2.7479 42.8295C2.75204 42.352 2.95495 41.8848 3.30442 41.5477C3.63283 41.2309 4.04784 41.0609 4.48626 41.0739C5.39839 41.098 6.13658 41.8607 6.13154 42.7741C6.1292 43.1876 6.31663 43.5796 6.64018 43.8374C6.96373 44.0954 7.38792 44.1909 7.79015 44.0962L14.9084 42.4271C15.6624 42.2503 16.2386 41.6145 16.3424 40.845C16.8676 36.95 18.1314 33.2473 20.0984 29.8394C20.4953 29.1512 20.4171 28.2831 19.9031 27.6788L16.5086 23.6922C16.2432 23.3807 15.8531 23.2057 15.4415 23.2178C15.0322 23.2296 14.6503 23.4264 14.4033 23.7529L14.1091 24.1418C13.8893 24.4324 13.5688 24.6151 13.2065 24.6567C12.8455 24.6981 12.4907 24.5919 12.2093 24.3575C11.6774 23.9144 11.6057 23.0764 12.0496 22.4896L14.3106 19.5001C14.7496 18.9198 15.5789 18.8046 16.1592 19.2437C16.7025 19.6546 16.8417 20.4265 16.4762 21.001C16.2641 21.3346 16.2088 21.7442 16.325 22.1222C16.4411 22.5001 16.7169 22.8081 17.0796 22.965L21.8262 25.0179C22.562 25.3364 23.421 25.1516 23.9637 24.5575C26.1246 22.1904 28.6295 20.1911 31.4094 18.6154C32.0828 18.2333 32.4582 17.4634 32.3437 16.6989L31.2503 9.42353C31.1894 9.0186 30.948 8.66319 30.5942 8.45721C30.24 8.25106 29.8115 8.21685 29.43 8.36377L28.3942 8.76222C28.0207 8.90553 27.616 8.89059 27.2543 8.71954C26.8927 8.54868 26.6241 8.24422 26.4975 7.86233C26.2582 7.1407 26.6754 6.31842 27.4278 6.02908L32.7169 3.99472C33.0904 3.85104 33.4951 3.86634 33.8568 4.03739C34.2184 4.20825 34.4872 4.51271 34.6137 4.8946C34.8528 5.61623 34.4357 6.43851 33.6833 6.72803L33.5403 6.78312C33.1536 6.93202 32.8565 7.25017 32.7346 7.64628C32.6129 8.04238 32.6795 8.47252 32.9159 8.81299L37.0797 14.8154C37.5201 15.4503 38.3215 15.7533 39.0739 15.5691C41.4207 14.9944 43.8481 14.7029 46.2917 14.7029H46.2924C47.0891 14.7029 47.8034 14.2008 48.0697 13.4541L49.4483 9.59638C49.572 9.25033 49.5493 8.86862 49.3853 8.53986C49.2214 8.21091 48.9306 7.9628 48.5797 7.85315C47.5758 7.53915 46.9372 6.5532 47.061 5.50892C47.1271 4.95329 47.419 4.44754 47.8828 4.08474C48.3698 3.70376 48.9929 3.52857 49.5934 3.60437L51.4868 3.84276C52.714 3.99724 53.6079 5.08275 53.4796 6.26242C53.3804 7.17311 52.7428 7.91167 51.8554 8.14393C51.2054 8.31407 50.7792 8.93632 50.8557 9.60394L51.3348 13.7843C51.4261 14.5821 52.0156 15.2342 52.8022 15.4073C55.8184 16.0698 58.7087 17.1928 61.392 18.7445C62.0641 19.1334 62.9193 19.0664 63.5205 18.5784L69.2333 13.9413C69.5512 13.6833 69.7347 13.2949 69.7325 12.8855C69.7302 12.4763 69.5424 12.0899 69.2219 11.8353L68.3528 11.1452C68.0395 10.8965 67.8469 10.54 67.8105 10.1412C67.7743 9.74312 67.9 9.35709 68.1648 9.05407C68.6648 8.48134 69.5851 8.42336 70.2167 8.92444L74.6549 12.4482C74.9682 12.6968 75.1608 13.0533 75.1972 13.4519C75.2334 13.85 75.1077 14.236 74.8428 14.5392C74.3427 15.1116 73.4219 15.1696 72.7914 14.6691L72.6716 14.574C72.3468 14.316 71.9216 14.2216 71.5188 14.3178C71.1155 14.4139 70.7788 14.6899 70.6054 15.0664L67.5455 21.7088C67.2219 22.4113 67.3687 23.2561 67.9101 23.8108C68.102 24.0074 68.2916 24.2109 68.5172 24.4559C69.0222 25.0047 69.8766 25.04 70.4254 24.5348C70.974 24.0296 71.0092 23.1754 70.5042 22.6267C70.4088 22.5228 70.3189 22.4255 70.2318 22.3325L72.4541 17.5082C74.0089 18.0167 75.7582 17.597 76.8768 16.3163C77.632 15.4519 77.9906 14.3477 77.8866 13.2071C77.7841 12.0825 77.2182 11.0351 76.334 10.3333L71.8958 6.80977C70.1225 5.40197 67.5903 5.60705 66.1308 7.27772C65.3757 8.14213 65.0171 9.24636 65.1211 10.387C65.2065 11.3229 65.6125 12.2055 66.2563 12.8797L62.2546 16.1287C59.6403 14.6759 56.8524 13.5918 53.9529 12.9003L53.6562 10.3099C55.0287 9.55083 55.9914 8.15293 56.1655 6.555C56.4523 3.91946 54.5051 1.50087 51.8251 1.16328L49.9317 0.924892C48.6235 0.760328 47.2701 1.13663 46.2202 1.95747C45.1853 2.76679 44.5317 3.91495 44.3803 5.1906C44.1599 7.04509 45.0155 8.81713 46.5014 9.81928L45.7195 12.007C43.444 12.0459 41.1824 12.3176 38.9806 12.8165L35.9587 8.46009C37.1857 7.37908 37.7127 5.65872 37.1778 4.04477C36.8165 2.9553 36.0473 2.08566 35.012 1.59593C33.9911 1.11322 32.8017 1.06875 31.7479 1.47404L26.459 3.50823C24.3454 4.32096 23.2365 6.60686 23.9345 8.71216C24.2957 9.80163 25.0647 10.6713 26.1002 11.161C26.9496 11.5627 27.9156 11.6612 28.8241 11.4489L29.5904 16.5475C26.9241 18.1195 24.4985 20.0543 22.367 22.3089L19.3183 20.9904C19.566 19.5469 19.0145 18.0167 17.7888 17.0894C16.9323 16.4416 15.8752 16.1656 14.8111 16.3138C13.7474 16.4613 12.8049 17.0144 12.1572 17.8709L9.89599 20.8604C8.57282 22.6094 8.82975 25.0569 10.4808 26.4323C11.3351 27.1441 12.4123 27.4665 13.515 27.3398C14.2101 27.26 14.8705 26.9973 15.4291 26.5899L17.4746 28.9926C15.5844 32.4022 14.3318 36.0752 13.746 39.9257L8.52078 41.1509C7.88647 39.5679 6.35174 38.4214 4.55774 38.374C3.38977 38.3447 2.28301 38.7802 1.42886 39.6043C0.561749 40.4412 0.0579736 41.6077 0.0469906 42.805L0.000178054 48.0131C-0.0102647 49.1865 0.438956 50.2918 1.26484 51.1252C2.09072 51.9587 3.19207 52.4176 4.36563 52.4176C6.4992 52.4178 8.29518 50.8847 8.70029 48.862Z" fill="#40BAFF"/>
<path d="M39.6038 41.4907C40.2626 41.1416 40.5138 40.3242 40.1645 39.6652C39.8154 39.0066 38.9983 38.7548 38.3388 39.1045C35.1118 40.815 31.4336 40.3629 29.594 38.0287C28.5618 36.7194 28.2068 34.9843 28.5942 33.1433C29.0004 31.2128 30.1621 29.4103 31.8652 28.0681C33.5679 26.7256 35.592 26.0181 37.5637 26.0728C39.4443 26.1259 41.0483 26.8763 42.0807 28.1858C43.6306 30.1521 43.611 33.0871 42.0305 35.6631C41.6405 36.2988 41.8395 37.1303 42.4754 37.5203C43.111 37.9102 43.9424 37.7111 44.3324 37.0755C46.5114 33.5243 46.4599 29.3787 44.2015 26.5139C42.6652 24.5647 40.3348 23.4493 37.64 23.3733C35.0358 23.2977 32.392 24.2138 30.1932 25.9471C27.9941 27.6804 26.4878 30.0387 25.9513 32.5871C25.396 35.2252 25.9365 37.7516 27.4729 39.7006C29.0906 41.7528 31.6237 42.8324 34.3489 42.8322C36.0851 42.8322 37.8991 42.3943 39.6038 41.4907Z" fill="#40BAFF"/>
<path d="M65.8059 29.3804C65.8059 26.5809 63.2006 24.3033 59.9982 24.3033C56.7959 24.3033 54.1904 26.5809 54.1904 29.3804C54.1904 32.18 56.7959 34.4576 59.9982 34.4576C63.2006 34.4576 65.8059 32.18 65.8059 29.3804ZM56.8913 29.3804C56.8913 28.07 58.2851 27.004 59.9984 27.004C61.7116 27.004 63.1053 28.07 63.1053 29.3804C63.1053 30.6908 61.7116 31.7569 59.9984 31.7569C58.2851 31.7569 56.8913 30.6908 56.8913 29.3804Z" fill="#40BAFF"/>
<path d="M50.1353 52.5889C50.1353 49.1579 47.344 46.3666 43.913 46.3666C40.4819 46.3666 37.6906 49.1579 37.6906 52.5889C37.6906 56.0199 40.4819 58.8111 43.913 58.8111C47.344 58.8111 50.1353 56.0199 50.1353 52.5889ZM40.3915 52.5889C40.3915 50.647 41.9712 49.0673 43.9132 49.0673C45.8549 49.0673 47.4348 50.647 47.4348 52.5889C47.4348 54.5307 45.8551 56.1104 43.9132 56.1104C41.9712 56.1104 40.3915 54.5307 40.3915 52.5889Z" fill="#40BAFF"/>
<path d="M67.7393 50.0507C67.7393 47.3825 65.5687 45.2119 62.9006 45.2119C60.2326 45.2119 58.062 47.3825 58.062 50.0507C58.062 52.7188 60.2326 54.8895 62.9006 54.8895C65.5687 54.8893 67.7393 52.7188 67.7393 50.0507ZM60.7625 50.0507C60.7625 48.8717 61.7216 47.9126 62.9004 47.9126C64.0793 47.9126 65.0384 48.8717 65.0384 50.0507C65.0384 51.2296 64.0793 52.1888 62.9004 52.1888C61.7218 52.1886 60.7625 51.2296 60.7625 50.0507Z" fill="#40BAFF"/>
<path d="M50.0177 71.8157C52.6322 71.8157 54.7595 69.6886 54.7595 67.0739C54.7595 64.4595 52.6324 62.3322 50.0177 62.3322C47.4031 62.3322 45.2758 64.4593 45.2758 67.0739C45.2758 69.6886 47.4029 71.8157 50.0177 71.8157ZM50.0177 65.0329C51.1432 65.0329 52.0588 65.9485 52.0588 67.0739C52.0588 68.1994 51.1432 69.115 50.0177 69.115C48.8923 69.115 47.9765 68.1994 47.9765 67.0739C47.9765 65.9485 48.8923 65.0329 50.0177 65.0329Z" fill="#40BAFF"/>
<path d="M28.7969 63.8448C31.4895 63.8448 33.6802 61.6542 33.6802 58.9615C33.6802 56.2689 31.4895 54.0783 28.7969 54.0783C26.1043 54.0783 23.9136 56.2689 23.9136 58.9615C23.9136 61.6542 26.1043 63.8448 28.7969 63.8448ZM28.7969 56.779C30.0005 56.779 30.9794 57.7581 30.9794 58.9615C30.9794 60.165 30.0003 61.1441 28.7969 61.1441C27.5934 61.1441 26.6143 60.165 26.6143 58.9615C26.6143 57.7581 27.5934 56.779 28.7969 56.779Z" fill="#40BAFF"/>
<path d="M56.2944 42.0616C56.2944 41.3159 55.69 40.7113 54.944 40.7113H53.7503C53.0044 40.7113 52.4 41.3159 52.4 42.0616C52.4 42.8074 53.0044 43.412 53.7503 43.412H54.944C55.69 43.412 56.2944 42.8074 56.2944 42.0616Z" fill="#40BAFF"/>
<path d="M37.8147 67.0163H39.0412C39.7871 67.0163 40.3915 66.4117 40.3915 65.6659C40.3915 64.9202 39.7871 64.3156 39.0412 64.3156H37.8147C37.0687 64.3156 36.4643 64.9202 36.4643 65.6659C36.4643 66.4117 37.0689 67.0163 37.8147 67.0163Z" fill="#40BAFF"/>
<path d="M26.4455 47.3511C27.1914 47.3511 27.7958 46.7465 27.7958 46.0007C27.7958 45.255 27.1914 44.6504 26.4455 44.6504H25.264C24.518 44.6504 23.9136 45.255 23.9136 46.0007C23.9136 46.7465 24.518 47.3511 25.264 47.3511H26.4455Z" fill="#40BAFF"/>
<path d="M50.4292 23.7257C51.1751 23.7257 51.7795 23.1211 51.7795 22.3753C51.7795 21.6295 51.1751 21.0249 50.4292 21.0249H48.785C48.039 21.0249 47.4346 21.6295 47.4346 22.3753C47.4346 23.1211 48.039 23.7257 48.785 23.7257H50.4292Z" fill="#40BAFF"/>
<path d="M59.4122 59.9195C58.6663 59.9195 58.0619 60.5241 58.0619 61.2699C58.0619 62.0157 58.6663 62.6203 59.4122 62.6203H61.2278C61.9738 62.6203 62.5782 62.0157 62.5782 61.2699C62.5782 60.5241 61.9738 59.9195 61.2278 59.9195H59.4122Z" fill="#40BAFF"/>
</g>
<defs>
<clipPath id="clip0">
<rect width="92" height="92" fill="white"/>
</clipPath>
</defs>
</svg>
