<svg width="92" height="92" viewBox="0 0 92 92" fill="none" xmlns="http://www.w3.org/2000/svg">
<g clip-path="url(#clip0)">
<path d="M91.47 72.1136C91.1359 71.7795 90.672 71.5872 90.1996 71.5872C89.7272 71.5872 89.2632 71.7795 88.9291 72.1136C88.595 72.4485 88.4027 72.9117 88.4027 73.3841C88.4027 73.8572 88.595 74.3204 88.9291 74.6545C89.2632 74.9886 89.7272 75.181 90.1996 75.181C90.672 75.181 91.1359 74.9886 91.47 74.6545C91.8041 74.3204 91.9965 73.8572 91.9965 73.3841C91.9965 72.9117 91.8041 72.4485 91.47 72.1136Z" fill="#40BAFF"/>
<path d="M66.6353 47.2789L66.6409 43.0913C66.6514 36.0533 63.9161 29.4372 58.9396 24.4607L54.6138 20.1348C53.9119 19.4329 52.7741 19.4329 52.0722 20.1348C51.371 20.836 51.371 21.9738 52.0722 22.6757L56.398 27.0016C60.6944 31.2979 63.0563 37.01 63.0471 43.0864L63.0401 48.0194C63.0394 48.4967 63.2289 48.955 63.5666 49.2926L83.8474 69.5735C84.1983 69.9244 84.6581 70.0999 85.1178 70.0999C85.5776 70.0999 86.038 69.9244 86.3883 69.5735C87.0902 68.8716 87.0902 67.7338 86.3883 67.0326L66.6353 47.2789Z" fill="#40BAFF"/>
<path d="M46.8247 66.0345C46.4878 65.6975 46.0309 65.508 45.5543 65.508C45.5536 65.508 45.5522 65.508 45.5515 65.508L37.919 65.5193C37.9077 65.5193 37.8972 65.5193 37.8867 65.5193C33.3678 65.5193 28.9964 64.1891 25.2433 61.6721L14.0051 54.1365C13.2604 53.636 12.7585 52.8752 12.5943 51.9929C12.4293 51.1106 12.6216 50.2198 13.1368 49.485C14.1342 48.0608 16.0806 47.6509 17.568 48.5521L22.4251 51.4973C23.5384 52.1718 24.9288 51.9185 25.7318 50.8944C26.5355 49.8703 26.4499 48.4595 25.5297 47.5393L4.53149 26.5404C3.92715 25.9361 3.59375 25.1317 3.59375 24.2761C3.59375 23.4204 3.92715 22.6161 4.5322 22.011C5.13654 21.4067 5.94092 21.0733 6.79654 21.0733C7.53986 21.0733 8.24457 21.3253 8.81311 21.7885L25.4131 38.3633C26.1143 39.0652 27.2521 39.0652 27.954 38.3633C28.6559 37.6614 28.6559 36.5236 27.954 35.8217L7.14047 15.0334C5.89178 13.7847 5.89178 11.7534 7.14047 10.5047C8.38916 9.25531 10.4212 9.25601 11.6699 10.5047L32.4715 31.3056C33.1727 32.0075 34.3105 32.0075 35.0124 31.3056C35.7143 30.6037 35.7143 29.4659 35.0124 28.764L18.425 12.1773C17.9624 11.6081 17.7097 10.9041 17.7097 10.1601C17.7097 9.30444 18.0432 8.50076 18.6482 7.89572C19.8969 6.64703 21.9282 6.64703 23.1769 7.89572L35.3086 20.052C35.3654 20.1089 39.5291 24.2473 39.5291 24.2473C40.231 24.9492 41.3688 24.9492 42.0707 24.2473C42.7719 23.5461 42.7719 22.4083 42.0707 21.7064L29.1775 8.81311C28.7142 8.24457 28.4622 7.53986 28.4622 6.79584C28.4622 5.94092 28.7949 5.13654 29.4 4.53149C30.005 3.92645 30.8094 3.59375 31.665 3.59375C32.5199 3.59375 33.3243 3.92645 33.9294 4.53149L41.9086 12.5107C42.6105 13.2126 43.7483 13.2126 44.4495 12.5107C45.1514 11.8095 45.1514 10.6718 44.4495 9.96985L36.4709 1.9906C35.1858 0.706818 33.4794 0 31.6643 0C29.8485 0 28.1414 0.706818 26.8584 1.9906C26.0477 2.8006 25.4679 3.77975 25.1499 4.84805C22.4841 2.71848 18.5745 2.88623 16.1066 5.35483C15.2931 6.16763 14.7302 7.13837 14.4164 8.16876L14.2108 7.9631C11.5611 5.31342 7.24927 5.31342 4.59958 7.9631C3.3158 9.24689 2.60898 10.9532 2.60898 12.769C2.60898 14.5842 3.3158 16.2905 4.59958 17.5743L4.80103 17.7757C3.75098 18.0972 2.78867 18.6714 1.9906 19.4701C0.706818 20.7539 0 22.4609 0 24.2761C0 26.0912 0.706818 27.7982 1.9906 29.082L17.6185 44.7092C14.8881 43.9904 11.8853 45.0068 10.1931 47.4235C9.11984 48.9564 8.71765 50.813 9.06158 52.6526C9.40482 54.4923 10.45 56.0786 12.004 57.121L23.2422 64.6566C27.5996 67.5793 32.6786 69.1123 37.9239 69.1123L44.811 69.1025L67.1821 91.4736C67.533 91.8245 67.9928 92 68.4525 92C68.9123 92 69.372 91.8245 69.723 91.4736C70.4249 90.7717 70.4249 89.6346 69.723 88.9327L46.8247 66.0345Z" fill="#40BAFF"/>
<path d="M48.9564 40.4872C51.9283 40.4872 54.347 38.0685 54.347 35.0966C54.347 32.1241 51.9283 29.706 48.9564 29.706C45.9839 29.706 43.5658 32.1241 43.5658 35.0966C43.5658 38.0685 45.9839 40.4872 48.9564 40.4872ZM48.9564 33.2997C49.9468 33.2997 50.7533 34.1055 50.7533 35.0966C50.7533 36.087 49.9468 36.8935 48.9564 36.8935C47.9653 36.8935 47.1595 36.087 47.1595 35.0966C47.1595 34.1055 47.9653 33.2997 48.9564 33.2997Z" fill="#40BAFF"/>
<path d="M38.7184 60.1307C41.691 60.1307 44.1091 57.712 44.1091 54.7401C44.1091 51.7675 41.691 49.3495 38.7184 49.3495C35.7459 49.3495 33.3278 51.7675 33.3278 54.7401C33.3278 57.712 35.7459 60.1307 38.7184 60.1307ZM38.7184 52.9432C39.7095 52.9432 40.5153 53.749 40.5153 54.7401C40.5153 55.7305 39.7095 56.537 38.7184 56.537C37.7281 56.537 36.9216 55.7305 36.9216 54.7401C36.9216 53.749 37.7281 52.9432 38.7184 52.9432Z" fill="#40BAFF"/>
<path d="M66.6255 59.6598C63.6529 59.6598 61.2349 62.0785 61.2349 65.0504C61.2349 68.0229 63.6529 70.441 66.6255 70.441C69.5981 70.441 72.0161 68.0229 72.0161 65.0504C72.0161 62.0785 69.5981 59.6598 66.6255 59.6598ZM66.6255 66.8473C65.6351 66.8473 64.8286 66.0415 64.8286 65.0504C64.8286 64.06 65.6351 63.2535 66.6255 63.2535C67.6166 63.2535 68.4224 64.06 68.4224 65.0504C68.4224 66.0415 67.6166 66.8473 66.6255 66.8473Z" fill="#40BAFF"/>
<path d="M81.5212 81.2131C78.5487 81.2131 76.1306 83.6319 76.1306 86.6038C76.1306 89.5763 78.5487 91.9944 81.5212 91.9944C84.4938 91.9944 86.9119 89.5763 86.9119 86.6038C86.9119 83.6319 84.4938 81.2131 81.5212 81.2131ZM81.5212 88.4006C80.5309 88.4006 79.7244 87.5948 79.7244 86.6038C79.7244 85.6134 80.5309 84.8069 81.5212 84.8069C82.5123 84.8069 83.3181 85.6134 83.3181 86.6038C83.3181 87.5948 82.5123 88.4006 81.5212 88.4006Z" fill="#40BAFF"/>
<path d="M37.1469 41.359C37.481 41.0228 37.6733 40.5609 37.6733 40.0886C37.6733 39.6141 37.481 39.1522 37.1469 38.816C36.8128 38.4819 36.3488 38.2917 35.8765 38.2917C35.402 38.2917 34.9401 38.4819 34.606 38.816C34.2698 39.1501 34.0796 39.6141 34.0796 40.0886C34.0796 40.5609 34.2698 41.0242 34.606 41.359C34.9401 41.6931 35.402 41.8833 35.8765 41.8833C36.3488 41.8833 36.8128 41.6931 37.1469 41.359Z" fill="#40BAFF"/>
<path d="M56.9125 50.6859C57.2466 50.3518 57.439 49.8885 57.439 49.4162C57.439 48.9417 57.2466 48.4798 56.9125 48.1457C56.5784 47.8109 56.1145 47.6193 55.6421 47.6193C55.1676 47.6193 54.7057 47.8109 54.3716 48.1457C54.0354 48.4798 53.8452 48.9417 53.8452 49.4162C53.8452 49.8885 54.0354 50.3518 54.3716 50.6859C54.7057 51.0207 55.1676 51.213 55.6421 51.213C56.1145 51.213 56.5784 51.0207 56.9125 50.6859Z" fill="#40BAFF"/>
<path d="M51.9157 61.3092C51.5809 61.6433 51.3885 62.1073 51.3885 62.5797C51.3885 63.0542 51.5809 63.516 51.9157 63.8501C52.2498 64.1842 52.713 64.3766 53.1854 64.3766C53.6585 64.3766 54.1218 64.1842 54.4559 63.8501C54.7907 63.516 54.9823 63.0521 54.9823 62.5797C54.9823 62.1073 54.7907 61.6433 54.4559 61.3092C54.1218 60.9751 53.6585 60.7828 53.1854 60.7828C52.713 60.7828 52.2498 60.9751 51.9157 61.3092Z" fill="#40BAFF"/>
<path d="M69.6506 76.1875C69.1776 76.1875 68.7143 76.3798 68.3802 76.7139C68.0461 77.048 67.8538 77.512 67.8538 77.9844C67.8538 78.4568 68.0461 78.9207 68.3802 79.2548C68.7143 79.5889 69.1776 79.7812 69.6506 79.7812C70.123 79.7812 70.5863 79.5889 70.9211 79.2548C71.2552 78.9207 71.4475 78.4568 71.4475 77.9844C71.4475 77.512 71.2552 77.048 70.9211 76.7139C70.5863 76.3798 70.123 76.1875 69.6506 76.1875Z" fill="#40BAFF"/>
<path d="M48.2601 18.1197C48.7346 18.1197 49.1965 17.9273 49.5306 17.5932C49.8654 17.2591 50.057 16.7952 50.057 16.3228C50.057 15.8504 49.8654 15.3864 49.5306 15.0523C49.1965 14.7182 48.7332 14.5259 48.2601 14.5259C47.7878 14.5259 47.3245 14.7182 46.9904 15.0523C46.6556 15.3864 46.4633 15.8504 46.4633 16.3228C46.4633 16.7952 46.6556 17.2591 46.9904 17.5932C47.3245 17.9273 47.7878 18.1197 48.2601 18.1197Z" fill="#40BAFF"/>
</g>
<defs>
<clipPath id="clip0">
<rect width="92" height="92" fill="white"/>
</clipPath>
</defs>
</svg>
