<svg width="92" height="92" viewBox="0 0 92 92" fill="none" xmlns="http://www.w3.org/2000/svg">
<path d="M36.2887 0C20.1389 0 7 13.1389 7 29.2887V71.971C7 75.9363 8.15036 79.7597 10.3266 83.0278C10.7391 83.6474 11.5757 83.8149 12.1953 83.4025C12.8147 82.9899 12.9825 82.1533 12.57 81.5337C10.6893 78.7096 9.69513 75.4028 9.69513 71.971V29.2887C9.69531 14.6251 21.6251 2.69531 36.2887 2.69531C50.9523 2.69531 62.8819 14.6251 62.8819 29.2887C62.8819 43.2136 57.6571 50.2076 52.1255 57.6123C48.3578 62.656 44.4618 67.8712 42.3381 75.3681C40.9076 80.4179 39.0049 83.9514 36.521 86.1706C34.128 88.3089 31.1707 89.3047 27.2143 89.3047C23.3225 89.3047 19.6442 88.0842 16.5772 85.7756C15.9822 85.328 15.1377 85.4472 14.6899 86.0417C14.2423 86.6365 14.3614 87.4814 14.956 87.929C18.4941 90.5921 22.7329 92 27.2143 92C36.3529 92 41.817 87.0971 44.9315 76.1027C46.9194 69.0852 50.4971 64.296 54.2849 59.2254C59.8367 51.7938 65.5774 44.109 65.5774 29.2885C65.5772 13.1389 52.4385 0 36.2887 0Z" fill="#40BAFF"/>
<path d="M47.2166 15.9884C43.772 13.2378 39.4483 11.723 35.0422 11.723C24.2674 11.723 15.5016 20.4889 15.5016 31.2636C15.5016 32.0079 16.1049 32.6113 16.8492 32.6113C17.5935 32.6113 18.1969 32.0079 18.1969 31.2636C18.1969 28.4934 18.8694 25.8775 20.0592 23.57C23.0033 21.6329 29.5362 22.023 34.2345 25.5208C40.7133 30.3442 39.2981 37.5362 37.8777 41.3939C37.6206 42.0923 37.9783 42.867 38.6768 43.1241C38.8304 43.1807 38.9876 43.2075 39.1421 43.2075C39.6907 43.2075 40.2064 42.87 40.407 42.325C41.9424 38.1543 42.2101 34.3047 41.2023 30.8829C40.3299 27.9207 38.4769 25.3189 35.844 23.3587C31.9877 20.4876 26.8131 19.2422 22.6599 19.8551C25.7402 16.5145 30.1508 14.4181 35.0422 14.4181C38.8945 14.4181 42.5228 15.6894 45.5347 18.0945C48.4595 20.4299 50.5496 23.7042 51.42 27.3138C51.5945 28.0374 52.3224 28.4828 53.046 28.308C53.7694 28.1335 54.2147 27.4056 54.0402 26.682C53.03 22.4933 50.6067 18.6956 47.2166 15.9884Z" fill="#40BAFF"/>
<path d="M19.9887 64.074C21.2674 67.8331 24.3657 70.3818 28.2766 70.8914C28.8225 70.9625 29.3529 70.9981 29.8694 70.9981C32.5048 70.9981 34.7676 70.0688 36.7496 68.1804C38.7042 66.3183 40.0763 63.7874 41.2869 61.5545C41.8899 60.442 42.4597 59.3912 43.0473 58.5122C43.0536 58.5028 43.0597 58.4935 43.0656 58.484C43.9831 57.0346 44.9739 55.5998 45.9336 54.2103C50.1072 48.1674 54.0494 42.4594 54.5338 33.1622C54.5726 32.419 54.0014 31.7849 53.258 31.7463C52.5163 31.7082 51.8807 32.2787 51.8421 33.0221C51.3974 41.5565 47.666 46.9588 43.7143 52.6806C42.744 54.0856 41.7408 55.5384 40.7971 57.0283C40.1437 58.0076 39.5479 59.1066 38.9172 60.2699C36.6046 64.5357 34.2153 68.947 28.6248 68.2185C25.7554 67.8444 23.4809 65.9706 22.5403 63.2058C21.5721 60.3597 22.2303 57.3322 24.2577 55.3048C25.6569 53.9057 26.4274 52.0454 26.4274 50.0669C26.4274 45.9822 23.1045 42.6593 19.0198 42.6593C18.2756 42.6593 17.6722 43.2626 17.6722 44.0069C17.6722 44.7512 18.2756 45.3546 19.0198 45.3546C21.6181 45.3546 23.7321 47.4684 23.7321 50.0669C23.7321 51.3256 23.242 52.5088 22.352 53.399C19.5929 56.1581 18.6872 60.2485 19.9887 64.074Z" fill="#40BAFF"/>
<path d="M79.1239 51.3059C77.7314 57.142 74.1496 62.0865 69.0382 65.2286C68.4041 65.6184 68.2061 66.4484 68.5958 67.0825C68.9856 67.7166 69.8157 67.9146 70.4498 67.5248C76.1745 64.0057 80.1861 58.4677 81.7456 51.9316C83.3052 45.3951 82.2259 38.6426 78.7069 32.9179C78.5121 32.601 78.2071 32.3928 77.8717 32.3128C77.5363 32.2328 77.1702 32.2807 76.8532 32.4757C76.2191 32.8654 76.0211 33.6955 76.4109 34.3296C79.553 39.4408 80.5164 45.4697 79.1239 51.3059Z" fill="#40BAFF"/>
<path d="M64.3751 60.2165C64.7649 60.8505 65.595 61.0486 66.229 60.6588C70.1255 58.2635 72.8547 54.5004 73.9135 50.0628C74.9723 45.6251 74.2362 41.0353 71.8409 37.1388C71.6461 36.8219 71.3411 36.6137 71.0057 36.5337C70.6701 36.4536 70.3041 36.5017 69.9872 36.6965C69.3531 37.0863 69.155 37.9164 69.5448 38.5505C71.5631 41.8337 72.1835 45.6999 71.2917 49.4375C70.3999 53.175 68.1008 56.3447 64.8176 58.363C64.1834 58.7523 63.9854 59.5824 64.3751 60.2165Z" fill="#40BAFF"/>
</svg>
