<svg width="92" height="92" viewBox="0 0 92 92" fill="none" xmlns="http://www.w3.org/2000/svg">
<path d="M78.6388 18.267C74.3274 12.7104 69.4233 8.29815 64.0629 5.1529C58.2358 1.73363 52.1584 0 46 0C37.1251 0 28.3128 3.65898 20.5162 10.5816C19.9595 11.0758 19.909 11.9275 20.4032 12.4841C20.8975 13.0408 21.749 13.0915 22.3057 12.5972C29.6014 6.11926 37.7949 2.69531 46 2.69531C51.6726 2.69531 57.2908 4.30423 62.6987 7.47752C67.691 10.4068 72.4665 14.709 76.5093 19.9193C84.5214 30.2452 89.3047 43.4846 89.3047 55.3344C89.3047 66.5552 85.0951 75.2386 76.7929 81.1429C69.2853 86.4825 58.6372 89.3047 46 89.3047C33.3628 89.3047 22.7147 86.4825 15.2071 81.1429C6.90485 75.2386 2.69531 66.5554 2.69531 55.3344C2.69531 42.0219 8.68538 27.1562 18.3276 16.5386C18.828 15.9877 18.787 15.1353 18.2359 14.635C17.6852 14.1346 16.8324 14.1754 16.3323 14.7266C6.25816 25.8197 0 41.3797 0 55.3344C0 61.5097 1.22942 67.0714 3.65412 71.8649C5.94442 76.3927 9.30583 80.2535 13.6449 83.3392C21.6114 89.0053 32.7996 92 46 92C59.2004 92 70.3886 89.0053 78.3551 83.3394C82.694 80.2535 86.0554 76.3929 88.3459 71.8651C90.7706 67.0716 92 61.5097 92 55.3344C92 42.9065 87.005 29.0497 78.6388 18.267Z" fill="#40BAFF"/>
<path d="M42.3962 24.828C41.5687 21.374 38.5147 19.7313 35.1925 21.0188C27.435 24.0248 18.6785 33.4747 18.6785 43.2563C18.6785 47.6156 20.5027 51.3071 23.9881 54.0759C22.3973 54.6369 20.8259 55.4284 19.3141 56.5099C15.2946 59.3849 13.1819 62.4062 13.0345 65.4902C12.9093 68.1138 14.186 70.6111 16.8297 72.913C17.3909 73.4018 18.2419 73.3429 18.731 72.7817C19.2197 72.2205 19.161 71.3692 18.5996 70.8804C16.6094 69.1473 15.6429 67.3772 15.727 65.619C15.833 63.4006 17.5675 61.0734 20.8822 58.7026C29.0247 52.8783 39.4459 56.7566 43.5485 58.6944C43.9063 58.8633 44.2762 58.9918 44.6527 59.0832V68.959C44.6527 69.7035 45.2559 70.3067 46.0003 70.3067C46.7448 70.3067 47.348 69.7035 47.348 68.959V59.083C47.7243 58.9916 48.0944 58.8633 48.4522 58.6944C52.5548 56.7568 62.9761 52.8784 71.1185 58.7026C74.8765 61.3906 76.5965 64.0103 76.2306 66.4889C75.7065 70.0398 70.8166 73.6372 62.815 76.3586C54.9576 79.0296 37.0431 79.0296 29.1863 76.3586C26.9263 75.59 24.8898 74.7433 23.133 73.842C22.4704 73.5019 21.6583 73.7637 21.3187 74.4258C20.9789 75.0882 21.2403 75.9003 21.9025 76.2401C23.7761 77.2013 25.9345 78.0997 28.3186 78.9103C36.7461 81.7754 55.2544 81.7756 63.6829 78.9103C75.3775 74.9331 78.4115 70.1742 78.8972 66.8824C79.4226 63.3233 77.333 59.8336 72.6866 56.5101C71.1746 55.4286 69.6034 54.637 68.0126 54.076C71.4978 51.3072 73.3222 47.6157 73.3222 43.2565C73.3222 38.9602 71.5706 34.3 68.3901 30.1343C67.9386 29.5431 67.093 29.4289 66.5011 29.8811C65.9095 30.3329 65.7962 31.1785 66.2479 31.7702C69.0717 35.4687 70.6269 39.548 70.6269 43.2567C70.6269 47.4729 68.5774 50.8158 64.5337 53.1994C57.457 52.0785 50.5632 54.7166 47.3015 56.2573C46.4864 56.642 45.5348 56.6513 44.7001 56.2573C41.4384 54.7166 34.5445 52.0785 27.4677 53.1994C23.424 50.8156 21.3745 47.4727 21.3745 43.2567C21.3745 39.7012 22.8196 35.7691 25.4434 32.1851C28.1204 28.5281 31.8589 25.4833 35.9806 23.6005C38.3309 23.0338 39.3972 23.8754 39.7758 25.4563C40.0223 26.4856 38.8475 31.4232 38.8475 32.4126C38.8475 36.3569 42.0564 39.5661 46.0009 39.5661C49.9454 39.5661 53.1542 36.3571 53.1542 32.4126C53.1542 31.4428 51.9838 26.4678 52.226 25.4563C52.6046 23.8754 53.6717 23.0332 56.0212 23.6005C58.3458 24.6619 60.5238 26.0685 62.4966 27.7826C63.0584 28.2706 63.9096 28.2109 64.3978 27.6491C64.8859 27.0872 64.8262 26.236 64.2643 25.7478C61.1047 23.0029 57.4351 21.183 56.8084 21.0193C53.362 20.1194 50.4323 21.3738 49.6047 24.8285C49.181 26.5979 50.4295 31.5876 50.4589 32.4126C50.4589 34.8709 48.459 36.8708 46.0009 36.8708C43.5428 36.8708 41.5428 34.8709 41.5427 32.4214C41.5728 31.5344 42.8283 26.6322 42.3962 24.828Z" fill="#40BAFF"/>
</svg>
