<svg width="92" height="92" viewBox="0 0 92 92" fill="none" xmlns="http://www.w3.org/2000/svg">
<path d="M76.2773 14.705C75.2855 14.705 74.4805 15.51 74.4805 16.5018C74.4805 17.4937 75.2855 18.2987 76.2773 18.2987C77.2692 18.2987 78.0742 17.4937 78.0742 16.5018C78.0742 15.5098 77.2692 14.705 76.2773 14.705Z" fill="#40BAFF"/>
<path d="M85.6135 12.8945C81.3253 8.07475 75.3773 5.42041 68.8652 5.42041C61.7444 5.42041 55.2465 8.18059 50.0746 13.4027C48.2761 15.2184 46.9319 17.0325 46 18.4722C45.0681 17.0327 43.7239 15.2188 41.9254 13.4027C36.7535 8.18041 30.2558 5.42023 23.1348 5.42023C9.50439 5.42023 0 16.8234 0 30.3808C0 48.6942 19.407 64.1141 44.8232 86.1407C45.1609 86.4334 45.5804 86.5797 46 86.5797C46.4196 86.5797 46.8391 86.4334 47.1768 86.1407C72.6536 64.0614 92 48.6687 92 30.3808C92 23.7333 89.732 17.5233 85.6135 12.8945ZM46 82.4059C21.9993 61.6369 3.59375 46.72 3.59375 30.3808C3.59375 18.1998 11.9945 9.01416 23.1348 9.01416C29.3203 9.01416 34.7535 11.3116 39.2835 15.8425C42.7345 19.2943 44.3447 22.817 44.3605 22.8523C44.6497 23.4968 45.2906 23.9108 45.9973 23.9122C45.9984 23.9122 45.9996 23.9122 46.0007 23.9122C46.7072 23.9122 47.3491 23.4966 47.6396 22.8523C47.6555 22.817 49.2656 19.2944 52.7167 15.8425C57.2465 11.3115 62.6797 9.01416 68.8654 9.01416C80.0057 9.01416 88.4064 18.1998 88.4064 30.3808C88.4062 47.0889 68.7862 62.6879 46 82.4059Z" fill="#40BAFF"/>
<path d="M82.5621 21.1061C82.1012 20.2271 81.015 19.8886 80.1363 20.3493C79.2575 20.8102 78.9186 21.8962 79.3795 22.7751C80.5656 25.0368 81.2187 27.7379 81.2187 30.3807C81.2187 35.573 78.7475 41.0838 73.4415 47.7236C72.8219 48.4988 72.9483 49.6296 73.7234 50.2491C74.5036 50.8726 75.6333 50.7375 76.2489 49.9672C82.0913 42.6561 84.8125 36.4322 84.8125 30.3807C84.8125 27.1205 84.0343 23.9134 82.5621 21.1061Z" fill="#40BAFF"/>
<path d="M63.25 39.8612H53.1875V29.7987C53.1875 28.8063 52.383 28.0018 51.3906 28.0018H40.6094C39.617 28.0018 38.8125 28.8063 38.8125 29.7987V39.8612H28.75C27.7576 39.8612 26.9531 40.6657 26.9531 41.6581V52.4393C26.9531 53.4317 27.7576 54.2362 28.75 54.2362H38.8125V64.2987C38.8125 65.2911 39.617 66.0956 40.6094 66.0956H51.3906C52.383 66.0956 53.1875 65.2911 53.1875 64.2987V54.2362H63.25C64.2424 54.2362 65.0469 53.4317 65.0469 52.4393V41.6581C65.0469 40.6657 64.2424 39.8612 63.25 39.8612ZM61.4531 50.6423H51.3906C50.3982 50.6423 49.5938 51.4467 49.5938 52.4391V62.5017H42.4062V52.4391C42.4062 51.4467 41.6018 50.6423 40.6094 50.6423H30.5469V43.4548H40.6094C41.6018 43.4548 42.4062 42.6503 42.4062 41.6579V31.5954H49.5938V41.6579C49.5938 42.6503 50.3982 43.4548 51.3906 43.4548H61.4531V50.6423Z" fill="#40BAFF"/>
</svg>
