<svg width="92" height="90" viewBox="0 0 92 90" fill="none" xmlns="http://www.w3.org/2000/svg">
<path d="M92 47.3936C92 45.1669 91.4076 43.0937 90.3316 41.5561C89.0305 39.6963 87.0688 38.6723 84.8084 38.6723H81.9533L80.8748 28.7588C80.521 25.492 80.7672 25.1118 81.866 24.0294C82.2798 23.6224 82.7447 23.2177 83.2368 22.7892C85.9116 20.4601 89.2405 17.5613 89.6939 10.1489C89.7289 9.5759 89.488 9.0204 89.0454 8.65442C88.603 8.2884 88.0122 8.15597 87.4557 8.29828C86.3932 8.56961 85.4177 8.83231 84.5568 9.0643C78.3209 10.7438 76.645 11.1954 70.6023 7.4701C68.6309 6.25631 66.6953 5.19939 64.8489 4.3288C63.951 3.90546 62.8804 4.29017 62.4572 5.18771C62.0341 6.08543 62.4186 7.15619 63.3161 7.57935C65.0424 8.39315 66.8597 9.3861 68.717 10.5296C76.0804 15.0693 78.8356 14.3272 85.4914 12.5342C85.5888 12.508 85.6876 12.4814 85.7877 12.4545C84.9683 16.5157 82.8936 18.3227 80.8766 20.0789C80.366 20.5239 79.8377 20.9837 79.345 21.4679C76.993 23.785 76.9163 25.5867 77.3017 29.1465L78.3107 38.4202C77.0414 38.2712 75.8312 38.1309 74.67 37.9959C60.9435 36.4021 54.0536 35.6022 36.8535 31.1055C36.1014 30.9085 35.436 30.7109 34.7925 30.5195C32.0489 29.7043 29.8819 29.0601 26.0716 30.1307C21.2418 31.4877 17.6595 32.9676 13.4597 36.4248C13.4807 30.1113 13.6124 27.6233 14.4397 22.0447C14.9112 18.8788 16.6901 16.0976 19.1987 14.6051C20.7611 13.6752 23.3152 12.8192 26.6099 14.0193C27.1767 14.2262 27.8092 14.1343 28.2941 13.7753C28.8776 13.3435 29.4714 12.8891 30.1004 12.4079C34.7131 8.87813 40.4539 4.48531 48.5746 4.15289C49.5663 4.11228 50.3371 3.27565 50.2965 2.28396C50.2559 1.29244 49.4166 0.5232 48.4278 0.56201C39.1721 0.9408 32.6665 5.91886 27.9164 9.5538C27.5646 9.8231 27.2237 10.0838 26.8919 10.3352C23.5894 9.3958 20.2387 9.8041 17.361 11.5167C13.9349 13.5554 11.514 17.2933 10.8851 21.5164C9.92827 27.9688 9.86646 30.4112 9.86251 38.6721H7.19163C4.93098 38.6721 2.96952 39.6963 1.6684 41.5559C0.59243 43.0937 0 45.1669 0 47.3936C0 51.6723 2.23316 56.1774 6.42293 57.4863C5.14697 60.3985 4.47799 63.5712 4.47799 66.7988C4.47799 79.2322 14.2366 89.3476 26.2317 89.3476C28.8391 89.3476 30.9222 88.6675 32.5959 88.121C34.5117 87.4957 35.6527 87.1629 36.816 87.5945C40.1977 88.8531 43.116 89.4392 46 89.4392C48.884 89.4392 51.8023 88.8531 55.1824 87.5951C56.3475 87.1624 57.4885 87.4955 59.4043 88.1208C61.0779 88.6675 63.1611 89.3474 65.7685 89.3474C77.7635 89.3474 87.5222 79.2321 87.5222 66.7986C87.5222 63.571 86.8532 60.3983 85.5773 57.4861C89.7668 56.1774 92 51.6723 92 47.3936ZM3.59375 47.3936C3.59375 45.8972 3.95582 44.5556 4.61294 43.6162C5.24867 42.7075 6.09212 42.2659 7.19163 42.2659H9.86179V49.8109C9.86179 52.0064 9.80411 52.0784 9.25283 52.7664C8.97431 53.114 8.62177 53.5547 8.18908 54.2111C4.83557 53.7094 3.59375 49.9678 3.59375 47.3936ZM65.7683 85.7538C63.7326 85.7538 62.0993 85.2205 60.5196 84.7048C58.4595 84.0321 56.3293 83.3365 53.9307 84.2265C50.9626 85.331 48.4427 85.8455 46.0002 85.8455C43.5577 85.8455 41.0378 85.331 38.0679 84.2258C35.6712 83.3365 33.5406 84.0319 31.4805 84.7046C29.9009 85.2205 28.2674 85.7536 26.2319 85.7536C16.2184 85.7536 8.07192 77.2505 8.07192 66.7986C8.07192 63.3064 8.99228 59.8919 10.7333 56.9244C11.298 55.9618 11.7192 55.4361 12.0579 55.0134C13.1749 53.6192 13.4559 52.8615 13.4559 49.8109V41.2336C18.2985 36.6323 21.7548 35.0764 27.0439 33.5906C29.8538 32.8008 31.2446 33.2141 33.7692 33.9645C34.4093 34.1548 35.1347 34.3702 35.9443 34.5822C53.3889 39.1429 60.3626 39.9526 74.2559 41.5658C75.6129 41.7234 77.0371 41.8887 78.5446 42.0661V49.8111C78.5446 52.8617 78.8257 53.6194 79.9426 55.0136C80.2811 55.4362 80.7025 55.962 81.2673 56.9246C83.0083 59.8921 83.9286 63.3067 83.9286 66.7988C83.9283 77.2505 75.7818 85.7538 65.7683 85.7538ZM83.8107 54.2111C83.3781 53.5547 83.0255 53.1141 82.747 52.7664C82.1957 52.0782 82.138 52.0064 82.138 49.8109V42.2659H84.8082C85.9077 42.2659 86.7511 42.7075 87.3869 43.6162C88.0442 44.5556 88.4061 45.8972 88.4061 47.3936C88.4062 49.9678 87.1644 53.7094 83.8107 54.2111Z" fill="#40BAFF"/>
<path d="M36.6104 50.5892C35.9206 49.8756 34.783 49.8567 34.0697 50.5466C31.8252 52.7172 28.17 52.7167 25.9212 50.5455C25.2071 49.8562 24.0695 49.8762 23.3804 50.5902C22.6911 51.3043 22.7111 52.4417 23.4252 53.131C25.2384 54.8815 27.618 55.7564 29.998 55.7564C32.3777 55.7564 34.7577 54.8806 36.568 53.1299C37.2812 52.4401 37.3003 51.3025 36.6104 50.5892Z" fill="#40BAFF"/>
<path d="M69.3827 50.5892C68.6929 49.8756 67.5553 49.8567 66.8419 50.5466C64.5956 52.719 60.9408 52.7188 58.6945 50.5466C57.9813 49.8569 56.8437 49.8758 56.1537 50.5892C55.4639 51.3025 55.483 52.4401 56.1963 53.1299C58.0081 54.8823 60.3883 55.7584 62.7684 55.7584C65.1484 55.7584 67.5285 54.8823 69.3403 53.1299C70.0535 52.4401 70.0725 51.3025 69.3827 50.5892Z" fill="#40BAFF"/>
<path d="M59.0243 67.5181C58.0318 67.5181 57.2274 68.3225 57.2274 69.3149V69.3559C54.05 68.2383 50.2999 67.634 46.3825 67.634C42.4659 67.634 38.7171 68.2381 35.5414 69.3554V69.3149C35.5414 68.3225 34.737 67.5181 33.7446 67.5181C32.7522 67.5181 31.9477 68.3225 31.9477 69.3149V74.7907C31.9477 75.7832 32.7522 76.5876 33.7446 76.5876C34.737 76.5876 35.5414 75.7832 35.5414 74.7907V73.2061C41.769 70.5453 50.9956 70.5454 57.2274 73.2064V74.7907C57.2274 75.7832 58.0318 76.5876 59.0243 76.5876C60.0167 76.5876 60.8211 75.7832 60.8211 74.7907V69.3149C60.8211 68.3225 60.0167 67.5181 59.0243 67.5181Z" fill="#40BAFF"/>
<path d="M16.9804 65.0464C16.9804 64.054 16.1709 63.2496 15.1785 63.2496C14.1861 63.2496 13.3817 64.054 13.3817 65.0464C13.3817 66.0389 14.1861 66.8433 15.1785 66.8433H15.1888C16.181 66.8433 16.9804 66.0389 16.9804 65.0464Z" fill="#40BAFF"/>
<path d="M24.5507 76.2947C23.5583 76.2947 22.7538 77.0992 22.7538 78.0916C22.7538 79.084 23.5583 79.8885 24.5507 79.8885H24.5609C25.5534 79.8885 26.3528 79.084 26.3528 78.0916C26.3528 77.0992 25.5431 76.2947 24.5507 76.2947Z" fill="#40BAFF"/>
<path d="M24.1636 68.0352H24.1738C25.1663 68.0352 25.9657 67.2308 25.9657 66.2383C25.9657 65.2459 25.1562 64.4415 24.1638 64.4415C23.1714 64.4415 22.3669 65.2459 22.3669 66.2383C22.3669 67.2308 23.1712 68.0352 24.1636 68.0352Z" fill="#40BAFF"/>
<path d="M17.7508 71.4811C16.7584 71.4811 15.9539 72.2855 15.9539 73.278C15.9539 74.2704 16.7584 75.0748 17.7508 75.0748H17.761C18.7534 75.0748 19.5527 74.2704 19.5527 73.278C19.5527 72.2855 18.7432 71.4811 17.7508 71.4811Z" fill="#40BAFF"/>
<path d="M77.5907 63.2496H77.5804C76.588 63.2496 75.7888 64.054 75.7888 65.0464C75.7888 66.0389 76.5982 66.8433 77.5907 66.8433C78.5831 66.8433 79.3875 66.0389 79.3875 65.0464C79.3875 64.054 78.5831 63.2496 77.5907 63.2496Z" fill="#40BAFF"/>
<path d="M68.2133 76.2947H68.2031C67.2107 76.2947 66.4112 77.0992 66.4112 78.0916C66.4112 79.084 67.2207 79.8885 68.2131 79.8885C69.2055 79.8885 70.01 79.084 70.01 78.0916C70.01 77.0992 69.2057 76.2947 68.2133 76.2947Z" fill="#40BAFF"/>
<path d="M68.6003 64.4415H68.5901C67.5977 64.4415 66.7982 65.2459 66.7982 66.2383C66.7982 67.2308 67.6077 68.0352 68.6002 68.0352C69.5926 68.0352 70.397 67.2308 70.397 66.2383C70.397 65.2459 69.5927 64.4415 68.6003 64.4415Z" fill="#40BAFF"/>
<path d="M75.0132 71.4811H75.003C74.0105 71.4811 73.2111 72.2855 73.2111 73.278C73.2111 74.2704 74.0206 75.0748 75.013 75.0748C76.0054 75.0748 76.8099 74.2704 76.8099 73.278C76.8099 72.2855 76.0056 71.4811 75.0132 71.4811Z" fill="#40BAFF"/>
<path d="M56.554 5.02023H56.559C57.5514 5.02023 58.3533 4.21577 58.3533 3.22336C58.3533 2.23094 57.5464 1.42648 56.554 1.42648C55.5615 1.42648 54.7571 2.23094 54.7571 3.22336C54.7571 4.21577 55.5615 5.02023 56.554 5.02023Z" fill="#40BAFF"/>
</svg>
