<svg width="92" height="72" viewBox="0 0 92 72" fill="none" xmlns="http://www.w3.org/2000/svg">
<path d="M90.6574 8.32876L84.2972 1.96887C82.5061 0.178961 79.5933 0.179277 77.8028 1.96919L74.9846 4.78771C71.5948 8.17713 66.5116 9.25807 62.0356 7.53972C57.1296 5.65745 51.5846 4.66256 45.9999 4.66256C40.4152 4.66256 34.8699 5.65745 29.9642 7.53972C25.4881 9.25649 20.4049 8.17681 17.0158 4.78771L14.1973 1.96919C12.4065 0.178962 9.494 0.178332 7.70251 1.96919L1.34263 8.32876C-0.447594 10.1193 -0.447594 13.0324 1.34263 14.8236L7.9257 21.4066C10.22 23.7006 11.4835 26.7502 11.4835 29.993C11.4835 39.242 18.314 47.7465 29.31 52.1882C33.9273 54.0531 36.9107 58.4755 36.9107 63.455V66.7817C36.9107 69.3137 38.9708 71.3737 41.5027 71.3737H50.497C53.029 71.3737 55.0891 69.3137 55.0891 66.7817V63.455C55.0891 58.4755 58.0728 54.0531 62.6897 52.1882C73.6858 47.7465 80.5163 39.242 80.5163 29.993C80.5163 26.7499 81.7798 23.7003 84.0741 21.4066L90.6574 14.8232C92.4477 13.0324 92.4477 10.1193 90.6574 8.32876ZM80.731 18.0626C77.5436 21.2496 75.7881 25.4867 75.7881 29.993C75.7881 37.2747 70.0908 44.0992 60.9194 47.8039C54.5053 50.3948 50.3609 56.5381 50.3609 63.455V66.6452H41.6392V63.455C41.6392 56.5381 37.4948 50.3941 31.0807 47.8039C21.9092 44.0992 16.212 37.2747 16.212 29.993C16.212 25.487 14.4568 21.2503 11.2694 18.0626L4.7828 11.576L10.9498 5.40904L13.6721 8.13142C18.3805 12.8391 25.4396 14.3403 31.6582 11.9543C36.029 10.2775 40.9886 9.3911 46.0002 9.3911C51.0118 9.3911 55.9714 10.2775 60.3422 11.9543C66.5608 14.3409 73.6199 12.8395 78.3286 8.13142L81.0506 5.40904L87.2176 11.576L80.731 18.0626Z" fill="#40BAFF"/>
<path d="M56.7229 14.1105C53.8556 13.5588 50.8845 13.2789 47.8913 13.2789C42.3066 13.2789 36.7613 14.2738 31.8556 16.156C30.6365 16.6235 30.0272 17.991 30.4953 19.21C30.8563 20.1504 31.7522 20.7279 32.7032 20.7279C32.9847 20.7279 33.271 20.6775 33.5496 20.5703C37.9204 18.8935 42.88 18.0071 47.8916 18.0071C50.5853 18.0071 53.2563 18.2583 55.8299 18.7536C57.1129 18.9985 58.3511 18.1606 58.5983 16.8786C58.8445 15.5968 58.005 14.3573 56.7229 14.1105Z" fill="#40BAFF"/>
<path d="M24.9762 23.973C26.282 23.973 27.3405 22.9145 27.3405 21.6087C27.3405 20.303 26.282 19.2445 24.9762 19.2445C23.6705 19.2445 22.6119 20.303 22.6119 21.6087C22.6119 22.9145 23.6705 23.973 24.9762 23.973Z" fill="#40BAFF"/>
</svg>
