<svg width="66" height="92" viewBox="0 0 66 92" fill="none" xmlns="http://www.w3.org/2000/svg">
<path d="M49.8605 69.4434C48.4483 69.4434 47.4866 70.4371 46.8861 71.1846C46.8857 71.1848 46.8855 71.1852 46.8854 71.1855C45.0249 73.5047 41.3774 79.7413 41.3774 83.6477C41.3774 89.1309 45.6435 91.9998 49.8579 91.9998C54.0721 91.9998 58.3383 89.1309 58.3383 83.6477C58.3383 79.7487 54.6953 73.5094 52.8346 71.1844C52.2343 70.4373 51.2728 69.4434 49.8605 69.4434ZM49.8581 88.4062C47.4257 88.4062 44.9713 86.9349 44.9713 83.6479C44.9713 81.3553 47.6088 76.0277 49.688 73.4354C49.7528 73.3545 49.8105 73.2875 49.8606 73.232C49.9104 73.287 49.9672 73.3531 50.0312 73.4327C52.1531 76.0842 54.7447 81.3188 54.7447 83.6479C54.7447 86.9349 52.2904 88.4062 49.8581 88.4062Z" fill="#40BAFF"/>
<path d="M16.6763 69.8255C15.2837 69.8255 14.3975 70.9293 14.1064 71.2921C14.106 71.2925 14.1057 71.2928 14.1055 71.2932C12.6871 73.0629 9.90675 77.8365 9.90675 80.8517C9.90675 85.2314 13.3122 87.5229 16.6763 87.5229C20.0406 87.5229 23.446 85.2314 23.446 80.8517C23.446 77.8365 20.6655 73.0629 19.2464 71.2921C18.9551 70.9293 18.0691 69.8255 16.6763 69.8255ZM16.6763 83.9292C15.2115 83.9292 13.5005 83.1233 13.5005 80.8517C13.5005 79.3166 15.2171 75.8005 16.6765 73.8429C18.1357 75.8005 19.8523 79.3166 19.8523 80.8517C19.8523 83.1233 18.1413 83.9292 16.6763 83.9292Z" fill="#40BAFF"/>
<path d="M55.7867 34.1997C55.3645 33.8104 54.9411 33.4201 54.5205 33.0266C52.5002 31.1362 51.1418 28.7746 50.2457 25.5949C49.9767 24.6398 48.9843 24.0839 48.0289 24.3527C47.0737 24.6219 46.5175 25.6143 46.7867 26.5695C47.8535 30.3548 49.58 33.3254 52.0656 35.6509C52.4927 36.0503 52.9223 36.4464 53.3503 36.8413C58.2998 41.4054 62.5742 45.3472 61.225 52.2844C59.9562 58.7792 53.6413 63.0347 47.1477 61.7701C46.2895 61.6033 45.4648 61.346 44.6777 61.0068C46.4485 58.2568 47.4968 54.8624 47.4968 51.1926C47.4968 51.1854 47.4959 51.1784 47.4958 51.1714C47.4958 51.1648 47.4965 51.1581 47.4963 51.1515C47.4853 50.6744 47.6573 50.2311 47.9807 49.9037C48.3038 49.5765 48.7512 49.4004 49.2208 49.4038C50.2606 49.4144 51.126 50.2696 51.1497 51.3101C51.172 52.2883 51.972 53.0658 52.9451 53.0658C52.9592 53.0658 52.9732 53.0657 52.987 53.0655C53.9791 53.0429 54.7652 52.2201 54.7424 51.228C54.6748 48.2707 52.2142 45.8403 49.2574 45.8102C47.7919 45.7953 46.4369 46.3525 45.4232 47.3787C44.422 48.3929 43.8842 49.7413 43.9034 51.1806C43.9034 51.1847 43.9029 51.1885 43.9029 51.1926C43.9029 58.355 39.0115 64.182 32.9993 64.182C26.9871 64.182 22.0959 58.355 22.0959 51.1926C22.0959 51.1887 22.0953 51.1847 22.0953 51.1806C22.1145 49.7413 21.5767 48.3927 20.5755 47.3787C19.5754 46.3657 18.2358 45.8099 16.7985 45.8099C16.7796 45.8099 16.7604 45.8099 16.7415 45.8101C13.7846 45.8401 11.3239 48.2705 11.2564 51.2278C11.2336 52.2199 12.0195 53.0427 13.0118 53.0653C13.0258 53.0655 13.0396 53.0657 13.0536 53.0657C14.0268 53.0657 14.8268 52.288 14.8491 51.3099C14.873 50.2694 15.7382 49.4142 16.7782 49.4036C17.2592 49.3999 17.6951 49.5763 18.018 49.9035C18.3415 50.2309 18.5134 50.6742 18.5025 51.1513C18.5023 51.1579 18.503 51.1646 18.503 51.1712C18.503 51.1784 18.5019 51.1852 18.5019 51.1924C18.5019 54.8622 19.5502 58.2568 21.321 61.0068C20.5335 61.3466 19.7085 61.6039 18.8503 61.7701C12.3573 63.0344 6.04257 58.779 4.77416 52.2856C3.4256 45.3526 7.69516 41.4129 12.6387 36.8512C13.0703 36.4528 13.5036 36.0532 13.9341 35.65C19.2498 30.6739 20.0156 23.8221 20.6911 17.7767C21.1338 13.8156 21.5519 10.0744 23.1898 7.52693C24.2765 5.83877 26.4747 3.59375 32.9998 3.59375C41.045 3.59375 43.113 6.98481 44.1493 10.6492C44.4193 11.604 45.4112 12.1593 46.3675 11.8892C47.3224 11.6191 47.8776 10.6262 47.6075 9.67114C46.726 6.55392 45.2718 4.27602 43.1622 2.70681C40.7129 0.8855 37.3889 0 32.9998 0C26.7814 0 22.5839 1.82652 20.168 5.58379C18.075 8.83901 17.6112 12.9867 17.1205 17.3779C16.4842 23.0706 15.8264 28.9572 11.479 33.0267C11.0548 33.4239 10.628 33.8177 10.2025 34.2103C4.94899 39.0581 -0.483677 44.0711 1.24779 52.9733C2.70057 60.4106 9.24496 65.5868 16.5529 65.5868C17.5366 65.5868 18.5357 65.4929 19.5364 65.2979C20.9892 65.0165 22.374 64.5387 23.6701 63.8741C26.1933 66.3068 29.4494 67.7754 33 67.7754C36.5508 67.7754 39.8068 66.3068 42.3301 63.8739C43.6248 64.5376 45.0091 65.0153 46.462 65.2975C47.4641 65.4927 48.4618 65.5867 49.4466 65.5867C56.7545 65.5861 63.2998 60.4093 64.7528 52.9719C66.4848 44.0649 61.0462 39.0497 55.7867 34.1997Z" fill="#40BAFF"/>
<path d="M45.3596 18.1314V18.1416C45.3596 19.134 46.1643 19.9334 47.1565 19.9334C48.1487 19.9334 48.9534 19.124 48.9534 18.1315C48.9534 17.1391 48.1487 16.3347 47.1565 16.3347C46.1643 16.3347 45.3596 17.1389 45.3596 18.1314Z" fill="#40BAFF"/>
</svg>
