<svg width="162" height="51" viewBox="0 0 162 51" fill="none" xmlns="http://www.w3.org/2000/svg">
<path fill-rule="evenodd" clip-rule="evenodd" d="M50.9988 25.75C50.9996 25.6668 51 25.5834 51 25.5C51 11.4167 39.5833 0 25.5 0C11.4167 0 0 11.4167 0 25.5C0 39.5833 11.4167 51 25.5 51C38.6541 51 49.482 41.04 50.8534 28.25H37.2998L34.6349 34.0238C34.4086 34.5142 33.893 34.8037 33.3565 34.7417C32.82 34.6797 32.384 34.2802 32.2755 33.7512L29.5818 20.6196L27.2303 33.7208C27.1271 34.296 26.6392 34.7229 26.0554 34.7488C25.4716 34.7747 24.9478 34.3927 24.794 33.8289L22.5167 25.4785L21.0401 27.6934C20.8082 28.0411 20.4179 28.25 20 28.25H12C11.3096 28.25 10.75 27.6904 10.75 27C10.75 26.3096 11.3096 25.75 12 25.75H19.331L21.9599 21.8066C22.2317 21.399 22.7166 21.1877 23.2002 21.2661C23.6839 21.3446 24.077 21.6984 24.206 22.1711L25.7483 27.8265L28.2697 13.7792C28.3755 13.1892 28.8852 12.7575 29.4845 12.7501C30.0838 12.7427 30.6041 13.1617 30.7245 13.7488L33.9598 29.5209L35.3651 26.4762C35.5694 26.0335 36.0124 25.75 36.5 25.75H50.9988Z" fill="#333333"/>
<path d="M74.0664 25.3701H70.6851V21H59.9673V25.3579H56.5005L56.3052 18.0581H57.6479C58.3722 17.4559 58.9297 16.5729 59.3203 15.4092C59.7191 14.2373 59.9876 12.7887 60.126 11.0635L60.6387 3.22656H72.2842V18.0581H74.3594L74.0664 25.3701ZM61.8472 18.0581H68.6221V6.19287H64.1177L63.8125 10.8682C63.5684 14.0013 62.9132 16.3979 61.8472 18.0581ZM90.5947 12.5161C90.5947 14.2658 90.2855 15.7998 89.667 17.1182C89.0485 18.4365 88.1615 19.4538 87.0059 20.1699C85.8584 20.8861 84.54 21.2441 83.0508 21.2441C81.5778 21.2441 80.2635 20.8901 79.1079 20.1821C77.9523 19.4741 77.0571 18.465 76.4224 17.1548C75.7876 15.8364 75.4661 14.3228 75.458 12.6138V11.7349C75.458 9.98519 75.7713 8.4471 76.3979 7.12061C77.0327 5.78597 77.9238 4.76465 79.0713 4.05664C80.2269 3.34049 81.5452 2.98242 83.0264 2.98242C84.5075 2.98242 85.8218 3.34049 86.9692 4.05664C88.1248 4.76465 89.016 5.78597 89.6426 7.12061C90.2773 8.4471 90.5947 9.98112 90.5947 11.7227V12.5161ZM86.8838 11.7104C86.8838 9.84684 86.5501 8.43083 85.8828 7.4624C85.2155 6.49398 84.2633 6.00977 83.0264 6.00977C81.7975 6.00977 80.8494 6.48991 80.1821 7.4502C79.5148 8.40234 79.1771 9.80208 79.1689 11.6494V12.5161C79.1689 14.3309 79.5026 15.7388 80.1699 16.7397C80.8372 17.7407 81.7975 18.2412 83.0508 18.2412C84.2796 18.2412 85.2236 17.7611 85.8828 16.8008C86.542 15.8324 86.8757 14.4245 86.8838 12.5771V11.7104ZM99.0542 13.7368H96.9424V21H93.2803V3.22656H96.9424V10.3433H98.6147L102.96 3.22656H107.428L101.947 11.6372L108.002 21H103.632L99.0542 13.7368ZM122.797 6.19287H117.353V21H113.69V6.19287H108.319V3.22656H122.797V6.19287ZM139.154 12.5161C139.154 14.2658 138.845 15.7998 138.227 17.1182C137.608 18.4365 136.721 19.4538 135.565 20.1699C134.418 20.8861 133.1 21.2441 131.61 21.2441C130.137 21.2441 128.823 20.8901 127.667 20.1821C126.512 19.4741 125.617 18.465 124.982 17.1548C124.347 15.8364 124.026 14.3228 124.018 12.6138V11.7349C124.018 9.98519 124.331 8.4471 124.958 7.12061C125.592 5.78597 126.483 4.76465 127.631 4.05664C128.786 3.34049 130.105 2.98242 131.586 2.98242C133.067 2.98242 134.381 3.34049 135.529 4.05664C136.684 4.76465 137.576 5.78597 138.202 7.12061C138.837 8.4471 139.154 9.98112 139.154 11.7227V12.5161ZM135.443 11.7104C135.443 9.84684 135.11 8.43083 134.442 7.4624C133.775 6.49398 132.823 6.00977 131.586 6.00977C130.357 6.00977 129.409 6.48991 128.742 7.4502C128.074 8.40234 127.737 9.80208 127.729 11.6494V12.5161C127.729 14.3309 128.062 15.7388 128.729 16.7397C129.397 17.7407 130.357 18.2412 131.61 18.2412C132.839 18.2412 133.783 17.7611 134.442 16.8008C135.102 15.8324 135.435 14.4245 135.443 12.5771V11.7104ZM145.478 14.7378V21H141.815V3.22656H148.749C150.084 3.22656 151.256 3.4707 152.265 3.95898C153.282 4.44727 154.063 5.14307 154.608 6.04639C155.154 6.94157 155.426 7.96289 155.426 9.11035C155.426 10.8519 154.828 12.2272 153.632 13.2363C152.444 14.2373 150.796 14.7378 148.688 14.7378H145.478ZM145.478 11.7715H148.749C149.717 11.7715 150.454 11.5436 150.958 11.0879C151.471 10.6322 151.728 9.98112 151.728 9.13477C151.728 8.264 151.471 7.56006 150.958 7.02295C150.446 6.48584 149.738 6.20915 148.834 6.19287H145.478V11.7715Z" fill="#333333"/>
<path d="M71.7349 37.687C71.7349 39.4285 71.4419 40.9504 70.856 42.2524C70.27 43.5464 69.4399 44.5352 68.3657 45.2188C67.2915 45.9023 66.0382 46.2441 64.606 46.2441C63.2062 46.2441 61.9652 45.9023 60.8828 45.2188C59.8005 44.527 58.9582 43.5464 58.356 42.2769C57.7619 40.9992 57.4567 39.5221 57.4404 37.8457V36.564C57.4404 34.855 57.7375 33.3454 58.3315 32.0352C58.9256 30.7249 59.7638 29.724 60.8462 29.0322C61.9367 28.3324 63.1818 27.9824 64.5815 27.9824C66.0057 27.9824 67.259 28.3283 68.3413 29.02C69.4318 29.7036 70.27 30.7005 70.856 32.0107C71.4419 33.3128 71.7349 34.8306 71.7349 36.564V37.687ZM69.4033 36.5396C69.4033 34.4318 68.9801 32.8164 68.1338 31.6934C67.2874 30.5622 66.1034 29.9966 64.5815 29.9966C63.1004 29.9966 61.9326 30.5622 61.0781 31.6934C60.2318 32.8164 59.7964 34.3789 59.772 36.3809V37.687C59.772 39.7297 60.1992 41.3369 61.0537 42.5088C61.9163 43.6725 63.1004 44.2544 64.606 44.2544C66.1196 44.2544 67.2915 43.7051 68.1216 42.6064C68.9517 41.4997 69.3789 39.9168 69.4033 37.8579V36.5396ZM88.9102 46H86.5542V37.7847H77.5942V46H75.2505V28.2266H77.5942V35.8682H86.5542V28.2266H88.9102V46ZM106.732 28.2266V46H104.389V30.1553H98.0166L97.6992 37.1987C97.5771 39.5588 97.333 41.3328 96.9668 42.521C96.6087 43.7091 96.0798 44.584 95.3799 45.1455C94.68 45.6989 93.7441 45.9837 92.5723 46H91.8032V44.0835L92.2915 44.0591C93.0483 44.0021 93.6302 43.758 94.0371 43.3267C94.444 42.8872 94.7533 42.1914 94.9648 41.2393C95.1764 40.2871 95.327 38.8223 95.4165 36.8447L95.7827 28.2266H106.732ZM121.027 41.3613H113.581L111.908 46H109.491L116.278 28.2266H118.329L125.128 46H122.724L121.027 41.3613ZM114.289 39.4326H120.331L117.304 31.1196L114.289 39.4326ZM138.727 28.2266H141.071V46H138.727V32.3037L129.975 46H127.619V28.2266H129.975V41.9229L138.727 28.2266ZM138.068 23.8076C138.068 24.7923 137.73 25.5858 137.055 26.188C136.387 26.7821 135.508 27.0791 134.418 27.0791C133.327 27.0791 132.444 26.778 131.769 26.1758C131.094 25.5736 130.756 24.7842 130.756 23.8076H132.599C132.599 24.3773 132.754 24.8249 133.063 25.1504C133.372 25.4678 133.824 25.6265 134.418 25.6265C134.988 25.6265 135.431 25.4678 135.749 25.1504C136.074 24.833 136.237 24.3854 136.237 23.8076H138.068ZM159.003 46H156.647V37.7847H147.687V46H145.343V28.2266H147.687V35.8682H156.647V28.2266H159.003V46Z" fill="#939495"/>
</svg>
