<svg width="87" height="109" viewBox="0 0 87 109" fill="none" xmlns="http://www.w3.org/2000/svg">
<path d="M77.6961 76.0524L66.1875 72.5142C66.2063 72.1665 66.1807 71.8148 66.0988 71.4674C65.8467 70.4006 65.1401 69.5075 64.1598 69.0173L57.0424 65.4588V60.3839C62.3674 56.6805 66.1152 50.8591 67.0523 44.1505H68.0014C71.1132 44.1505 73.7824 41.8383 74.0779 38.8862C74.2435 37.2318 73.7023 35.5802 72.5932 34.3546C72.0565 33.7613 71.4078 33.2919 70.6948 32.9638V15.2491C70.6948 8.72272 65.3854 3.41304 58.8588 3.41304C58.8505 3.41304 58.7394 3.41304 58.5889 3.41326C55.7142 1.29288 51.4911 0 46.8065 0C36.8328 0 32.2508 2.0778 26.9456 4.48366C24.1114 5.76888 21.181 7.09773 17.0271 8.31248C16.5911 8.44 16.2298 8.7472 16.0342 9.15744C15.8385 9.56746 15.8268 10.0416 16.002 10.4607C16.0506 10.577 16.764 12.2331 18.6044 14.2449C17.8097 15.2231 16.3054 17.7247 16.3054 22.644V33.0349C14.4682 33.9109 13.1272 35.6462 12.9226 37.688C12.7567 39.3424 13.2977 40.9942 14.4068 42.2202C15.5166 43.4469 17.1016 44.1503 18.7553 44.1503H19.9471C20.8834 50.861 24.6313 56.6831 29.9576 60.3861V65.4586L22.84 69.017C21.8597 69.5075 21.1529 70.4006 20.901 71.4674C20.8191 71.8146 20.7937 72.1663 20.8123 72.514L9.30366 76.0522C4.3048 77.5892 0.946045 82.1355 0.946045 87.3655V107.403C0.946045 108.285 1.66093 108.999 2.54272 108.999C3.4245 108.999 4.13939 108.285 4.13939 107.403V87.3658C4.13939 83.547 6.59188 80.2271 10.2423 79.1048L22.2133 75.4244L24.3262 78.2417L21.9257 80.6425C20.3984 82.1696 20.0212 84.4935 20.987 86.4254L25.5578 95.5667H21.2053V93.7503C21.2053 92.8683 20.4904 92.1536 19.6086 92.1536C18.7268 92.1536 18.0119 92.8683 18.0119 93.7503V95.5667H11.0758C10.194 95.5667 9.47908 96.2814 9.47908 97.1634V107.403C9.47908 108.285 10.194 108.999 11.0758 108.999H28.1414C29.0232 108.999 29.7381 108.285 29.7381 107.403V103.927L31.8329 108.117C32.1126 108.676 32.6764 109 33.2623 109C33.5022 109 33.7457 108.945 33.975 108.831C34.7638 108.436 35.0835 107.477 34.689 106.688L23.8434 84.9969C23.4932 84.2965 23.6301 83.4541 24.1838 82.9002L27.5638 79.5199C28.1257 78.9581 28.1889 78.0687 27.7122 77.433L24.0948 72.61C23.9745 72.4495 23.9896 72.2849 24.0094 72.201C24.0292 72.1169 24.0893 71.963 24.2687 71.8732L30.5575 68.7288L34.9971 83.9502C35.244 84.797 36.1301 85.2824 36.977 85.0361C37.8236 84.7892 38.3097 83.9029 38.0627 83.0562L37.3629 80.657C39.3262 81.3393 41.4021 81.6944 43.5005 81.6944C45.5998 81.6944 47.6749 81.3403 49.6377 80.658L43.5003 101.7L40.0545 89.8859C39.8075 89.0391 38.9213 88.553 38.0746 88.8C37.228 89.047 36.7419 89.9334 36.9889 90.7799L41.9675 107.849C42.1664 108.531 42.7908 108.999 43.5003 108.999C44.2099 108.999 44.8345 108.531 45.0331 107.849L56.4434 68.7288L62.7319 71.8732C62.9116 71.963 62.9714 72.1171 62.9914 72.2008C63.0112 72.2849 63.0263 72.4495 62.9061 72.61L59.2886 77.433C58.812 78.0685 58.8752 78.9581 59.4368 79.5201L62.8171 82.9004C63.371 83.4541 63.5075 84.2967 63.1575 84.9969L52.3112 106.689C51.9167 107.477 52.2365 108.436 53.0252 108.831C53.2545 108.946 53.4982 109 53.7382 109C54.3238 109 54.8878 108.676 55.1675 108.117L66.0132 86.4256C66.9791 84.4939 66.602 82.17 65.075 80.6427L62.674 78.2417L64.7867 75.4246L76.7579 79.1052C80.4081 80.2274 82.8606 83.5472 82.8606 87.3662V107.403C82.8606 108.285 83.5753 108.999 84.4573 108.999C85.3393 108.999 86.054 108.285 86.054 107.403V87.3658C86.0537 82.1357 82.6952 77.5892 77.6961 76.0524ZM26.5443 105.806H12.672V98.76H18.0115V98.8699C18.0115 99.7519 18.7264 100.467 19.6082 100.467C20.4899 100.467 21.2048 99.7519 21.2048 98.8699V98.76H26.5443V105.806ZM28.2642 7.39195C33.4372 5.04612 37.523 3.19334 46.8065 3.19334C52.6971 3.19334 57.9611 5.6586 59.0508 8.92794C59.3299 9.7646 60.2334 10.2161 61.0705 9.93768C61.907 9.65879 62.3591 8.75444 62.0803 7.91799C61.9885 7.64252 61.8789 7.37236 61.7547 7.1071C65.1001 8.30056 67.5017 11.499 67.5017 15.2491V32.4245H65.6853C64.6837 32.4245 63.8689 31.6098 63.8689 30.6082V28.9014C63.8689 21.4991 58.5097 16.0548 58.2815 15.8266C57.8606 15.4055 57.24 15.2546 56.6716 15.433C47.8081 18.2321 35.3109 20.5911 26.1102 15.9358C22.8362 14.2791 20.9029 12.1739 19.8862 10.7682C23.2756 9.65432 25.9029 8.46278 28.2642 7.39195ZM53.8493 66.2175L50.7999 76.673C48.5654 77.8703 46.055 78.5015 43.5003 78.5015C40.9471 78.5015 38.4344 77.8711 36.201 76.6747L33.1509 66.2175V62.2563C36.2815 63.7757 39.7929 64.6294 43.5001 64.6294C47.2069 64.6294 50.7183 63.7753 53.8493 62.2548V66.2175ZM43.5001 61.4358C32.1476 61.4358 22.9118 52.1998 22.9118 40.8473C22.9118 39.9653 22.1969 39.2506 21.3151 39.2506C20.4333 39.2506 19.7184 39.9653 19.7184 40.8473V40.9571H18.7553C18.0023 40.9571 17.2804 40.6365 16.7748 40.0777C16.2626 39.5116 16.0229 38.7761 16.0999 38.0065C16.2343 36.667 17.5078 35.6177 18.9993 35.6177H21.3151C24.0776 35.6177 26.3248 33.3702 26.3248 30.608V24.5815C26.3248 23.6995 25.6099 22.9848 24.7281 22.9848C23.8464 22.9848 23.1315 23.6995 23.1315 24.5815V30.608C23.1315 31.6096 22.3165 32.4243 21.3151 32.4243H19.4987V22.644C19.4987 18.9288 20.4972 17.0814 20.9583 16.4263C21.9338 17.1957 23.0778 17.9579 24.4169 18.6557C28.0354 20.5417 32.3421 21.5861 37.2173 21.7598C42.9315 21.9653 49.4625 20.963 56.6414 18.7851C57.9085 20.3197 60.6758 24.2085 60.6758 28.9012V30.608C60.6758 33.3704 62.9233 35.6177 65.6855 35.6177H68.2453C68.9983 35.6177 69.7202 35.9383 70.2258 36.4971C70.7381 37.0632 70.9778 37.7985 70.9007 38.5681C70.7666 39.9078 69.4933 40.9571 68.0018 40.9571H67.2814V40.8639C67.2814 39.9823 66.5669 39.2677 65.6853 39.2672C65.6851 39.2672 65.6849 39.2672 65.6847 39.2672C64.8033 39.2672 64.0887 39.9813 64.088 40.8626C64.0793 52.2066 54.8437 61.4358 43.5001 61.4358Z" fill="#40BAFF"/>
</svg>
