<svg width="109" height="109" viewBox="0 0 109 109" fill="none" xmlns="http://www.w3.org/2000/svg">
<path d="M98.3555 6.59961H88.9883V2.18213C88.9883 1.0091 88.0324 0.0532227 86.8594 0.0532227C85.6863 0.0532227 84.7305 1.0091 84.7305 2.18213V6.59961H67.3799V2.12891C67.3799 0.955879 66.424 0 65.251 0C64.0779 0 63.1221 0.955879 63.1221 2.12891V6.59961H45.8779V2.12891C45.8779 0.955879 44.9221 0 43.749 0C42.576 0 41.6201 0.955879 41.6201 2.12891V6.59961H24.2887V2.18213C24.2887 1.0091 23.3328 0.0532227 22.1598 0.0532227C20.9846 0.0532227 20.0309 1.0091 20.0309 2.18213V6.59961H10.6445C4.77514 6.59961 0 11.3747 0 17.2441V98.3555C0 104.225 4.77514 109 10.6445 109H98.3555C104.225 109 109 104.225 109 98.3555V17.2441C109 11.3747 104.225 6.59961 98.3555 6.59961ZM104.742 98.3555C104.742 101.877 101.877 104.742 98.3555 104.742H10.6445C7.12289 104.742 4.25781 101.877 4.25781 98.3555V43.0039H104.742V98.3555ZM104.742 38.7461H4.25781V34.4883H104.742V38.7461ZM104.742 30.2305H4.25781V17.2441C4.25781 13.7225 7.12289 10.8574 10.6445 10.8574H20.0309V14.9556C20.0309 16.1286 20.9846 17.0845 22.1598 17.0845C23.3328 17.0845 24.2887 16.1286 24.2887 14.9556V10.8574H41.6201V14.9023C41.6201 16.0754 42.576 17.0312 43.749 17.0312C44.9221 17.0312 45.8779 16.0754 45.8779 14.9023V10.8574H63.1221V14.9023C63.1221 16.0754 64.0779 17.0312 65.251 17.0312C66.424 17.0312 67.3799 16.0754 67.3799 14.9023V10.8574H84.7305V14.9556C84.7305 16.1286 85.6863 17.0845 86.8594 17.0845C88.0324 17.0845 88.9883 16.1286 88.9883 14.9556V10.8574H98.3555C101.877 10.8574 104.742 13.7225 104.742 17.2441V30.2305Z" fill="#40BAFF"/>
<path d="M86.8594 21.3423C85.6863 21.3423 84.7305 22.2982 84.7305 23.4712C84.7305 24.6442 85.6863 25.6001 86.8594 25.6001C88.0324 25.6001 88.9883 24.6442 88.9883 23.4712C88.9883 22.2982 88.0324 21.3423 86.8594 21.3423Z" fill="#40BAFF"/>
<path d="M65.251 21.2891C64.0779 21.2891 63.1221 22.2449 63.1221 23.418C63.1221 24.591 64.0779 25.5469 65.251 25.5469C66.424 25.5469 67.3799 24.591 67.3799 23.418C67.3799 22.2449 66.424 21.2891 65.251 21.2891Z" fill="#40BAFF"/>
<path d="M43.749 21.2891C42.576 21.2891 41.6201 22.2449 41.6201 23.418C41.6201 24.591 42.576 25.5469 43.749 25.5469C44.9221 25.5469 45.8779 24.591 45.8779 23.418C45.8779 22.2449 44.9221 21.2891 43.749 21.2891Z" fill="#40BAFF"/>
<path d="M22.1598 21.3423C20.9846 21.3423 20.0309 22.2982 20.0309 23.4712C20.0309 24.6442 20.9846 25.6001 22.1598 25.6001C23.3328 25.6001 24.2887 24.6442 24.2887 23.4712C24.2887 22.2982 23.3328 21.3423 22.1598 21.3423Z" fill="#40BAFF"/>
<path d="M12.0283 58.1191H18.415C19.5908 58.1191 20.5439 57.166 20.5439 55.9902C20.5439 54.8144 19.5908 53.8613 18.415 53.8613H12.0283C10.8525 53.8613 9.89941 54.8144 9.89941 55.9902C9.89941 57.166 10.8525 58.1191 12.0283 58.1191Z" fill="#40BAFF"/>
<path d="M18.415 89.627H12.0283C10.8525 89.627 9.89941 90.5801 9.89941 91.7559C9.89941 92.9317 10.8525 93.8848 12.0283 93.8848H18.415C19.5908 93.8848 20.5439 92.9317 20.5439 91.7559C20.5439 90.5801 19.5908 89.627 18.415 89.627Z" fill="#40BAFF"/>
<path d="M31.6143 58.1191H38.001C39.1768 58.1191 40.1299 57.166 40.1299 55.9902C40.1299 54.8144 39.1768 53.8613 38.001 53.8613H31.6143C30.4385 53.8613 29.4854 54.8144 29.4854 55.9902C29.4854 57.166 30.4385 58.1191 31.6143 58.1191Z" fill="#40BAFF"/>
<path d="M38.001 89.627H31.6143C30.4385 89.627 29.4854 90.5801 29.4854 91.7559C29.4854 92.9317 30.4385 93.8848 31.6143 93.8848H38.001C39.1768 93.8848 40.1299 92.9317 40.1299 91.7559C40.1299 90.5801 39.1768 89.627 38.001 89.627Z" fill="#40BAFF"/>
<path d="M57.5869 89.627H51.2002C50.0244 89.627 49.0713 90.5801 49.0713 91.7559C49.0713 92.9317 50.0244 93.8848 51.2002 93.8848H57.5869C58.7625 93.8848 59.7158 92.9317 59.7158 91.7559C59.7158 90.5801 58.7625 89.627 57.5869 89.627Z" fill="#40BAFF"/>
<path d="M77.3857 89.627H70.999C69.8234 89.627 68.8701 90.5801 68.8701 91.7559C68.8701 92.9317 69.8234 93.8848 70.999 93.8848H77.3857C78.5613 93.8848 79.5146 92.9317 79.5146 91.7559C79.5146 90.5801 78.5613 89.627 77.3857 89.627Z" fill="#40BAFF"/>
<path d="M96.9717 71.7441H90.585C89.4094 71.7441 88.4561 72.6973 88.4561 73.873C88.4561 75.0488 89.4094 76.002 90.585 76.002H96.9717C98.1473 76.002 99.1006 75.0488 99.1006 73.873C99.1006 72.6973 98.1473 71.7441 96.9717 71.7441Z" fill="#40BAFF"/>
<path d="M96.9717 89.627H90.585C89.4094 89.627 88.4561 90.5801 88.4561 91.7559C88.4561 92.9317 89.4094 93.8848 90.585 93.8848H96.9717C98.1473 93.8848 99.1006 92.9317 99.1006 91.7559C99.1006 90.5801 98.1473 89.627 96.9717 89.627Z" fill="#40BAFF"/>
<path d="M90.7674 55.9901L88.015 58.7426C87.1839 59.5739 87.1836 60.9219 88.0152 61.7535C88.8131 62.5514 90.2071 62.5722 91.0261 61.7535L93.7785 59.001C93.7785 59.001 96.528 61.7505 96.531 61.7535C97.3334 62.5559 98.7161 62.5788 99.5419 61.7535C100.373 60.9221 100.373 59.5741 99.5419 58.7426L96.7892 55.9901L99.5417 53.2377C100.373 52.4063 100.373 51.0583 99.5417 50.2268C98.7101 49.3954 97.3625 49.3954 96.5308 50.2268L93.7783 52.9794L91.0259 50.227C90.1943 49.3957 88.8467 49.3957 88.015 50.227C87.1836 51.0583 87.1836 52.4063 88.015 53.2379L90.7674 55.9901Z" fill="#40BAFF"/>
<path d="M71.1815 55.9902L68.429 58.7426C67.5979 59.574 67.5977 60.922 68.4293 61.7536C69.2263 62.5506 70.622 62.5715 71.4401 61.7536L74.1926 59.0011C74.1926 59.0011 76.9412 61.7497 76.945 61.7536C77.7449 62.5534 79.1342 62.5751 79.9559 61.7536C80.7873 60.9222 80.7873 59.5742 79.9559 58.7426L77.2033 55.9902L79.9557 53.2377C80.7871 52.4064 80.7871 51.0583 79.9557 50.2268C79.1242 49.3954 77.7766 49.3954 76.9448 50.2268L74.1924 52.9795L71.4399 50.227C70.6084 49.3957 69.2608 49.3957 68.429 50.227C67.5977 51.0583 67.5977 52.4064 68.429 53.2379L71.1815 55.9902Z" fill="#40BAFF"/>
<path d="M51.3826 55.9902L48.6302 58.7426C47.7988 59.574 47.7988 60.9222 48.6304 61.7535C49.4515 62.5747 50.8217 62.5729 51.6413 61.7535L54.3938 59.0011C54.3938 59.0011 57.1458 61.7531 57.1463 61.7535C57.951 62.5583 59.3299 62.5804 60.1572 61.7535C60.9885 60.9222 60.9885 59.5742 60.1572 58.7426L57.4045 55.9902L60.157 53.2377C60.9883 52.4064 60.9883 51.0583 60.157 50.2268C59.3254 49.3954 57.9778 49.3954 57.146 50.2268L54.3936 52.9795L51.6411 50.227C50.8098 49.3957 49.4617 49.3957 48.6302 50.227C47.7986 51.0583 47.7988 52.4064 48.6302 53.2379L51.3826 55.9902Z" fill="#40BAFF"/>
<path d="M60.3696 68.1098C59.5381 67.2785 58.1905 67.2785 57.3587 68.1098L54.6065 70.8623L51.854 68.1098C51.0226 67.2785 49.6746 67.2785 48.8431 68.1098C48.0115 68.9412 48.0117 70.2892 48.8431 71.1207L51.5955 73.873L48.8431 76.6254C48.0117 77.4568 48.0117 78.8048 48.8431 79.6361C49.6457 80.4387 51.029 80.4611 51.854 79.6361L54.6065 76.8837C54.6065 76.8837 57.3577 79.6349 57.3589 79.6361C58.1641 80.4413 59.5402 80.4656 60.3698 79.6361C61.2012 78.8048 61.2012 77.4568 60.3698 76.6252L57.6174 73.873L60.3698 71.1205C61.2012 70.2894 61.2012 68.9412 60.3696 68.1098Z" fill="#40BAFF"/>
<path d="M71.1815 73.8731L68.429 76.6255C67.5977 77.4569 67.5977 78.8049 68.4293 79.6365C69.2318 80.4391 70.6141 80.4623 71.4401 79.6365L74.1926 76.884C74.1926 76.884 76.9412 79.6326 76.945 79.6365C77.7444 80.4359 79.1346 80.4576 79.9559 79.6365C80.7873 78.8051 80.7873 77.4571 79.9559 76.6255L77.2033 73.8731L79.9557 71.1206C80.7871 70.2893 80.7871 68.9413 79.9557 68.1097C79.1242 67.2784 77.7766 67.2784 76.9448 68.1097L74.1924 70.8624L71.4399 68.1099C70.6084 67.2786 69.2608 67.2786 68.429 68.1099C67.5977 68.9413 67.5977 70.2893 68.429 71.1208L71.1815 73.8731Z" fill="#40BAFF"/>
<path d="M32.0096 73.8731L29.2571 76.6255C28.426 77.4569 28.4258 78.8049 29.2573 79.6364C30.057 80.4361 31.4469 80.4576 32.2683 79.6364L35.0207 76.884C35.0207 76.884 37.77 79.6333 37.7732 79.6364C38.5724 80.4356 39.9627 80.4578 40.7841 79.6364C41.6154 78.8051 41.6154 77.4571 40.7841 76.6255L38.0314 73.8731L40.7839 71.1206C41.6152 70.2892 41.6152 68.9412 40.7839 68.1097C39.9525 67.2781 38.6045 67.2783 37.773 68.1097L35.0205 70.8623L32.268 68.1099C31.4367 67.2785 30.0887 67.2785 29.2571 68.1099C28.4256 68.9412 28.4258 70.2892 29.2571 71.1208L32.0096 73.8731Z" fill="#40BAFF"/>
<path d="M12.2108 73.8731L9.4583 76.6255C8.62718 77.4569 8.62696 78.8049 9.45851 79.6364C10.2577 80.4356 11.6487 80.4571 12.4694 79.6364L15.2217 76.884C15.2217 76.884 17.9694 79.6318 17.9741 79.6364C18.7731 80.4354 20.1648 80.4567 20.985 79.6364C21.8164 78.8051 21.8164 77.4571 20.985 76.6255L18.2326 73.8731L20.985 71.1206C21.8164 70.2892 21.8164 68.9412 20.985 68.1097C20.1537 67.2781 18.8057 67.2783 17.9741 68.1097L15.2217 70.8623L12.4692 68.1099C11.6379 67.2785 10.2898 67.2785 9.4583 68.1099C8.62675 68.9412 8.62696 70.2892 9.4583 71.1208L12.2108 73.8731Z" fill="#40BAFF"/>
</svg>
