<svg width="109" height="109" viewBox="0 0 109 109" fill="none" xmlns="http://www.w3.org/2000/svg">
<g clip-path="url(#clip0)">
<path d="M77.7209 83.2997H31.2805C30.1618 83.2997 29.2605 84.1985 29.2605 85.3216C29.2605 86.4446 30.1574 87.3472 31.2805 87.3472H77.7209C78.8358 87.3472 79.7383 86.4446 79.7383 85.3216C79.7383 84.1985 78.8439 83.2997 77.7209 83.2997Z" fill="#40BAFF"/>
<path d="M77.721 92.5201H54.5017C53.3824 92.5201 52.478 93.4226 52.478 94.5457C52.478 95.6606 53.3787 96.5675 54.5017 96.5675H77.7204C78.8434 96.5675 79.7416 95.6687 79.7416 94.5457C79.7416 93.4226 78.844 92.5201 77.721 92.5201Z" fill="#40BAFF"/>
<path d="M35.1946 65.66C35.1946 72.0127 73.7993 72.0127 73.7993 65.66C73.7993 60.2896 67.613 53.0338 59.2578 50.9135C62.7503 48.5678 65.1595 43.9293 65.1595 39.7591C65.1595 33.8711 60.3884 29.0943 54.4979 29.0943C48.6062 29.0943 43.8406 33.8711 43.8406 39.7591C43.8406 43.9293 46.2455 48.5715 49.7329 50.9135C41.3903 53.0344 35.1946 60.2896 35.1946 65.66ZM53.6352 54.0086H53.5897L51.8258 51.9774C52.6847 52.2888 53.5648 52.4744 54.4979 52.4744C55.4291 52.4744 56.3111 52.2926 57.17 51.9892L55.3986 54.0129H55.3574L59.9181 65.0191L54.4979 70.4243L49.0839 65.0191L53.6352 54.0086Z" fill="#40BAFF"/>
<path d="M83.7932 5.2471C84.4267 6.78559 84.8508 8.39758 84.8508 10.0488V14.3255C84.9879 14.8904 85.0788 15.4746 85.0788 16.0795V96.4392C85.0788 100.596 81.6991 103.975 77.5458 103.975H31.4549C27.3035 103.975 23.9244 100.596 23.9244 96.4392V16.0788C23.9244 11.9243 27.3035 8.54458 31.4549 8.54458H62.9439C63.157 6.72767 63.687 5.01726 64.5902 3.51926H31.4549C24.5311 3.51926 18.9028 9.15126 18.9028 16.0788V96.4386C18.9028 103.368 24.5311 109 31.4549 109H77.5458C84.4678 109 90.096 103.368 90.096 96.4386V16.0788C90.1004 11.4384 87.5435 7.42217 83.7932 5.2471Z" fill="#40BAFF"/>
<path d="M73.8067 28.6976C78.8282 28.6976 82.9093 24.1917 82.9093 18.6581V10.0432C82.9167 8.08986 82.3854 6.28042 81.5097 4.73882L79.3745 6.87402C79.7918 7.83387 80.0453 8.89773 80.0453 10.0432V18.6544C80.0453 22.6158 77.2424 25.8286 73.806 25.8317C70.3666 25.828 67.5749 22.6158 67.5749 18.6544V10.0432C67.5749 6.08671 70.3734 2.87083 73.8141 2.86709C74.8612 2.87083 75.8354 3.20095 76.7043 3.72416L78.7747 1.64751C77.3452 0.617901 75.6423 0.00312688 73.8141 -0.000610352C68.7851 -0.000610352 64.7041 4.50462 64.7041 10.0426L64.6997 18.6575C64.7003 24.1917 68.7851 28.6938 73.8067 28.6976Z" fill="#40BAFF"/>
</g>
<defs>
<clipPath id="clip0">
<rect width="109" height="109" fill="white"/>
</clipPath>
</defs>
</svg>
