<svg width="109" height="109" viewBox="0 0 109 109" fill="none" xmlns="http://www.w3.org/2000/svg">
<g clip-path="url(#clip0)">
<path d="M108.273 52.4665C98.3657 40.3966 77.3914 26.311 54.4999 26.311C31.5263 26.311 10.5511 40.4924 0.727171 52.4665C-0.242716 53.6487 -0.242716 55.3512 0.727171 56.5333C10.8689 68.8952 31.8924 82.689 54.4999 82.689C77.9107 82.689 98.7958 68.0794 108.273 56.5335C109.242 55.3512 109.242 53.6487 108.273 52.4665ZM76.277 54.4999C76.277 66.5079 66.5078 76.2773 54.4997 76.2773C42.4913 76.2773 32.7223 66.5072 32.7223 54.4999C32.7223 42.492 42.4915 32.7226 54.4997 32.7226C66.5089 32.7228 76.277 42.4933 76.277 54.4999ZM7.53625 54.5008C11.1446 50.7505 19.8449 42.657 32.0583 37.4624C24.3936 47.5336 24.3906 61.458 32.0546 71.5328C22.7685 67.597 14.1421 61.3789 7.53625 54.5008ZM76.9415 71.5375C84.6061 61.4661 84.6089 47.5419 76.9451 37.4671C86.2308 41.4028 94.8574 47.6212 101.463 54.4989C97.8552 58.2495 89.1548 66.3427 76.9415 71.5375Z" fill="#40BAFF"/>
<path d="M43.5999 54.5001C43.5999 60.5104 48.4895 65.4 54.4998 65.4C60.51 65.4 65.3998 60.5104 65.3998 54.5001C65.3998 48.4897 60.51 43.6001 54.4998 43.6001C48.4895 43.6001 43.5999 48.4897 43.5999 54.5001ZM58.988 54.5001C58.988 56.975 56.9745 58.9883 54.4998 58.9883C52.0249 58.9883 50.0116 56.975 50.0116 54.5001C50.0116 52.0251 52.0249 50.0118 54.4998 50.0118C56.9745 50.0118 58.988 52.0251 58.988 54.5001Z" fill="#40BAFF"/>
<path d="M54.5001 13.8921C56.2706 13.8921 57.706 12.4567 57.706 10.6862V3.20582C57.706 1.43532 56.2706 -6.10352e-05 54.5001 -6.10352e-05C52.7296 -6.10352e-05 51.2942 1.43532 51.2942 3.20582V10.6862C51.2942 12.4567 52.7296 13.8921 54.5001 13.8921Z" fill="#40BAFF"/>
<path d="M73.6286 18.1799C75.1657 19.0566 77.124 18.5221 78.0016 16.9833L82.268 9.50287C83.1451 7.9649 82.6097 6.00718 81.0716 5.12983C79.5332 4.2527 77.5759 4.78808 76.6985 6.32648L72.4321 13.8069C71.555 15.3446 72.0906 17.3026 73.6286 18.1799Z" fill="#40BAFF"/>
<path d="M30.9986 16.9832C31.8757 18.5212 33.8334 19.0568 35.3716 18.1797C36.9096 17.3025 37.4452 15.3446 36.568 13.8066L32.3017 6.32623C31.4245 4.78826 29.4664 4.25266 27.9286 5.12979C26.3906 6.00692 25.8551 7.96486 26.7322 9.50283L30.9986 16.9832Z" fill="#40BAFF"/>
<path d="M54.5001 95.1078C52.7296 95.1078 51.2942 96.5432 51.2942 98.3138V105.794C51.2942 107.565 52.7296 109 54.5001 109C56.2706 109 57.706 107.565 57.706 105.794V98.3138C57.706 96.5432 56.2706 95.1078 54.5001 95.1078Z" fill="#40BAFF"/>
<path d="M35.3716 90.8203C33.8336 89.9433 31.8759 90.4787 30.9986 92.0167L26.7322 99.4971C25.8551 101.035 26.3906 102.993 27.9286 103.87C29.4668 104.747 31.4245 104.211 32.3016 102.674L36.568 95.1933C37.4454 93.6553 36.9096 91.6974 35.3716 90.8203Z" fill="#40BAFF"/>
<path d="M78.0016 92.0167C77.1245 90.4786 75.1661 89.9434 73.6286 90.8201C72.0906 91.6972 71.555 93.6552 72.4321 95.1931L76.6985 102.674C77.5754 104.211 79.5332 104.747 81.0716 103.87C82.6095 102.993 83.1451 101.035 82.268 99.4971L78.0016 92.0167Z" fill="#40BAFF"/>
</g>
<defs>
<clipPath id="clip0">
<rect width="109" height="109" fill="white"/>
</clipPath>
</defs>
</svg>
