<svg width="80" height="80" viewBox="0 0 80 80" fill="none" xmlns="http://www.w3.org/2000/svg">
<path d="M68.2842 11.7158C60.7292 4.16063 50.6844 0 40 0C29.3156 0 19.2708 4.16063 11.7158 11.7158C4.16063 19.2708 0 29.3156 0 40C0 50.6844 4.16063 60.7292 11.7158 68.2842C19.2708 75.8394 29.3156 80 40 80C50.6844 80 60.7292 75.8394 68.2842 68.2842C75.8394 60.7292 80 50.6844 80 40C80 29.3156 75.8394 19.2708 68.2842 11.7158ZM40 76.875C19.667 76.875 3.125 60.333 3.125 40C3.125 19.667 19.667 3.125 40 3.125C60.333 3.125 76.875 19.667 76.875 40C76.875 60.333 60.333 76.875 40 76.875Z" fill="#40BAFF"/>
<path d="M63.8648 16.1352C57.4903 9.76062 49.015 6.25 40 6.25C30.985 6.25 22.5097 9.76062 16.1352 16.1352C9.76062 22.5097 6.25 30.985 6.25 40C6.25 49.015 9.76062 57.4903 16.1352 63.8648C22.5097 70.2394 30.985 73.75 40 73.75C49.015 73.75 57.4903 70.2394 63.8648 63.8648C70.2394 57.4903 73.75 49.015 73.75 40C73.75 30.985 70.2394 22.5097 63.8648 16.1352ZM41.5625 70.5855V62.8125C41.5625 61.9495 40.863 61.25 40 61.25C39.137 61.25 38.4375 61.9495 38.4375 62.8125V70.5855C22.7916 69.7953 10.2047 57.2084 9.41453 41.5625H17.1875C18.0505 41.5625 18.75 40.863 18.75 40C18.75 39.137 18.0505 38.4375 17.1875 38.4375H9.41453C10.2047 22.7916 22.7916 10.2047 38.4375 9.41453V17.1875C38.4375 18.0505 39.137 18.75 40 18.75C40.863 18.75 41.5625 18.0505 41.5625 17.1875V9.41453C57.2084 10.2047 69.7953 22.7916 70.5855 38.4375H62.8125C61.9495 38.4375 61.25 39.137 61.25 40C61.25 40.863 61.9495 41.5625 62.8125 41.5625H70.5855C69.7953 57.2084 57.2084 69.7953 41.5625 70.5855Z" fill="#40BAFF"/>
<path d="M45.4592 33.004C45.0503 33.0037 44.6416 33.1476 44.3547 33.436L42.02 35.7709C41.4078 35.4773 40.7228 35.3126 40 35.3126C39.2772 35.3126 38.592 35.4773 37.9802 35.7707C37.9802 35.7707 25.8055 23.596 25.7922 23.5827C25.1892 22.9798 24.1845 22.981 23.5828 23.5827C22.9734 24.1921 22.9734 25.1827 23.5828 25.7921L35.7708 37.9801C35.4772 38.5921 35.3125 39.2773 35.3125 40.0001C35.3125 42.5848 37.4153 44.6876 40 44.6876C42.5847 44.6876 44.6875 42.5848 44.6875 40.0001C44.6875 39.2774 44.5228 38.5926 44.2295 37.9807C44.2295 37.9807 46.5575 35.6534 46.5639 35.647C47.1605 35.0505 47.157 34.0293 46.5641 33.4362C46.2766 33.1484 45.8677 33.0043 45.4592 33.004ZM40 41.5626C39.1385 41.5626 38.4375 40.8616 38.4375 40.0001C38.4375 39.1385 39.1385 38.4376 40 38.4376C40.8616 38.4376 41.5625 39.1385 41.5625 40.0001C41.5625 40.8616 40.8616 41.5626 40 41.5626Z" fill="#40BAFF"/>
<path d="M49.8438 31.7188C50.7067 31.7188 51.4062 31.0192 51.4062 30.1562C51.4062 29.2933 50.7067 28.5938 49.8438 28.5938C48.9808 28.5938 48.2812 29.2933 48.2812 30.1562C48.2812 31.0192 48.9808 31.7188 49.8438 31.7188Z" fill="#40BAFF"/>
</svg>
