<svg width="20" height="16" viewBox="0 0 20 16" fill="none" xmlns="http://www.w3.org/2000/svg">
<path d="M7.46134 16C6.59648 16 5.70629 15.9315 4.81075 15.7943C3.23347 15.5524 1.6368 14.746 1.18499 14.5045L0 13.8712L1.28295 13.4588C2.68537 13.0081 3.53849 12.7284 4.59454 12.2905C3.53711 11.79 2.72215 10.8895 2.32985 9.72558L2.03139 8.83992L2.27614 8.87647C2.04405 8.64782 1.8608 8.41574 1.71874 8.2047C1.21352 7.45462 0.946038 6.5381 1.00295 5.75268L1.0591 4.97964L1.53258 5.15891C1.33285 4.79022 1.1885 4.39646 1.10366 3.98376C0.896905 2.9773 1.06994 1.90805 1.59102 0.97303L2.00346 0.23295L2.55506 0.880557C4.29959 2.92898 6.5092 4.1441 9.13171 4.49982C9.02459 3.77809 9.10485 3.08156 9.3705 2.45722C9.6798 1.73026 10.23 1.11383 10.9612 0.674432C11.7733 0.186564 12.7581 -0.0498381 13.7342 0.00877776C14.7698 0.0709731 15.71 0.450261 16.4568 1.10637C16.8215 1.01375 17.0902 0.914862 17.4533 0.781223C17.6718 0.700832 17.9196 0.609552 18.2297 0.505148L19.3723 0.120342L18.6272 2.20038C18.6763 2.19635 18.727 2.19292 18.7799 2.19069L20 2.13669L19.2789 3.10005C19.2375 3.15524 19.227 3.1709 19.2123 3.19252C19.1542 3.27814 19.0819 3.38463 18.0921 4.67656C17.8443 5.00007 17.7205 5.42142 17.7435 5.8632C17.8313 7.54203 17.6206 9.06096 17.1169 10.3777C16.6405 11.6234 15.9023 12.6922 14.923 13.5544C13.7111 14.6211 12.1659 15.3515 10.33 15.725C9.4294 15.9081 8.46231 16 7.46134 16Z" fill="#40BAFF"/>
</svg>
