<svg width="60" height="60" viewBox="0 0 60 60" fill="none" xmlns="http://www.w3.org/2000/svg">
<g clip-path="url(#clip0)">
<path fill-rule="evenodd" clip-rule="evenodd" d="M56.9123 29.5947C58.0292 29.8228 59.0588 30.8666 59.2603 31.9673L59.9676 35.7653C60.0705 36.3574 59.9273 36.9297 59.5535 37.3639C59.1797 37.8112 58.6291 38.048 58.0135 38.048H46.9025L47.5382 41.5455C47.6926 42.3942 47.4844 43.2033 46.9584 43.8173C46.4279 44.4357 45.658 44.7778 44.7761 44.7778H36V43.4401H37.7074V40.2189C37.7074 39.8505 38.0141 39.5479 38.3901 39.5479C38.7684 39.5479 39.0751 39.8505 39.0751 40.2189V43.4401H44.7671C45.2372 43.4401 45.6401 43.2691 45.9019 42.9599C46.1683 42.6507 46.2668 42.2363 46.184 41.7824L45.5058 38.0524L45.2752 36.8003L45.0894 35.7828C44.8925 34.6952 43.8002 33.5944 42.7011 33.3664L39.2049 32.6427L37.9469 32.3818L37.4814 32.2875C37.4686 32.2971 37.4581 32.3075 37.4472 32.3182C37.4332 32.332 37.4187 32.3463 37.3985 32.3599L31.7356 35.5679C31.6281 35.625 31.514 35.6579 31.3954 35.6579C31.3282 35.6579 31.2588 35.6491 31.1962 35.6293C31.0148 35.5767 30.8649 35.4495 30.7821 35.2851L29.9897 33.6931L29.1973 35.2851C29.1145 35.4495 28.9645 35.5767 28.7832 35.6293C28.7183 35.6491 28.6512 35.6579 28.584 35.6579C28.4654 35.6579 28.349 35.625 28.2438 35.5679L22.5808 32.3599C22.5604 32.3461 22.5451 32.3317 22.5304 32.3177C22.5192 32.3072 22.5083 32.2969 22.4958 32.2875L22.0302 32.3862L20.7768 32.6427L17.2738 33.3664C16.1748 33.5944 15.0825 34.7018 14.8855 35.7828L14.6997 36.8003L14.4714 38.0524L13.7932 41.7824C13.7104 42.2363 13.8111 42.6485 14.0752 42.9599C14.3393 43.2691 14.7422 43.4401 15.21 43.4401H20.9021V40.2189C20.9021 39.8505 21.2087 39.5479 21.5848 39.5479C21.9608 39.5479 22.2675 39.8505 22.2675 40.2189V43.4401H26V44.7778H15.2212C14.3416 44.7778 13.5671 44.4291 13.0411 43.8173C12.5129 43.2011 12.3114 42.392 12.4614 41.5434L13.0971 38.0458H1.98826C1.37048 38.0458 0.822095 37.8024 0.448295 37.366C0.0744947 36.9319 -0.0732348 36.3574 0.0342048 35.7631L0.725847 31.9673C0.925058 30.8666 1.95469 29.8228 3.07161 29.5947L6.62383 28.8579L7.20803 27.5072C7.22818 27.4677 7.2528 27.4304 7.28414 27.3953C6.72455 26.652 6.2366 25.7507 5.86728 24.7793C5.20697 24.6258 4.58024 23.9789 4.39446 23.2509C4.1281 22.2137 4.40789 21.2664 5.10849 20.8388L5.01 19.635C5.01 16.2098 7.6736 13.7254 11.3422 13.7254C15.0131 13.7254 17.6767 16.2098 17.6767 19.635V21.0143C18.2788 21.2664 18.5586 22.2093 18.2922 23.2531C18.1087 23.9767 17.4842 24.6236 16.7008 24.8977C16.4434 25.7595 15.9599 26.6498 15.4003 27.391C15.4316 27.4282 15.4585 27.4677 15.4786 27.5072L16.2083 28.9742L19.6151 29.5969C20.4276 29.768 21.1864 30.3688 21.6206 31.1056L22.6077 30.8995L23.7582 28.5882C23.8186 28.4654 23.9194 28.3821 24.0335 28.3185C23.0285 27.0467 22.2294 25.538 21.6564 24.0272C20.6469 23.6719 19.6307 22.7882 19.3375 21.6458C18.948 20.1262 19.3599 18.7732 20.3201 18.1855V16.0146C20.3201 10.7936 24.3849 7 29.9897 7C35.5945 7 39.6637 10.7892 39.6637 16.0146V18.1855C40.624 18.7754 41.0358 20.1306 40.6441 21.6458C40.3509 22.7904 39.3414 23.6676 38.3386 24.0228C37.7589 25.5336 36.9509 27.0423 35.9459 28.3141C36.0623 28.3755 36.1675 28.461 36.2279 28.5882L37.3806 30.8995L38.3722 31.1034C38.8087 30.3688 39.5675 29.7614 40.3778 29.5947L43.9322 28.8579L44.5164 27.505C44.5388 27.4655 44.5589 27.4304 44.5925 27.3931C44.0307 26.6498 43.5427 25.7485 43.1734 24.7771C42.5109 24.6236 41.8864 23.9767 41.7006 23.2487C41.432 22.2115 41.714 21.2642 42.4124 20.8366L42.3139 19.6328C42.3139 16.2076 44.9775 13.7232 48.6484 13.7232C52.3215 13.7232 54.9828 16.2076 54.9828 19.6328V21.0121C55.5782 21.2642 55.858 22.2071 55.5939 23.2509C55.4081 23.9746 54.7858 24.6214 54.0024 24.8955C53.7428 25.7573 53.2593 26.6476 52.6997 27.3888C52.7311 27.426 52.7557 27.4633 52.7781 27.505L53.5078 28.972L56.9123 29.5947ZM44.127 23.707L44.2232 23.8825C44.7604 25.5095 45.884 27.4962 47.4374 28.1979C47.8336 28.3711 48.2365 28.461 48.6461 28.461C49.049 28.461 49.4497 28.3711 49.8414 28.1913C51.3926 27.4918 52.5274 25.5051 53.0713 23.889L53.1273 23.718L53.3108 23.7531C53.6152 23.7531 54.2128 23.4154 54.3337 22.9483C54.4792 22.3738 54.3248 21.9528 54.1457 21.9067L53.8368 22.0646L53.6801 21.7532V19.6372C53.6801 16.9049 51.6119 14.9994 48.6461 14.9994C45.6803 14.9994 43.6121 16.9049 43.6121 19.6372V22.0909L43.3055 21.933C42.9675 21.9506 42.8131 22.3738 42.9563 22.9439C43.0727 23.422 43.6681 23.7487 43.9434 23.7487L44.127 23.707ZM49.8078 30.7745L52.2789 29.3711L51.9275 28.6672L49.4542 30.075L49.8078 30.7745ZM47.48 30.7679L47.8291 30.0684L45.3535 28.6606L44.9842 29.4105L45.2461 29.5048L47.48 30.7679ZM36.163 31.5134L36.0623 31.3117L35.6862 30.5486L35.3236 29.8206L34.4775 30.3008L33.5934 30.803L32.707 31.3051L30.838 32.3621L31.6841 34.0527L35.5161 31.8818L36.163 31.5134ZM20.6872 21.3169C20.9312 22.2729 22.1645 22.933 22.6995 22.8211C23.5433 25.378 25.3206 28.643 27.9439 29.8184C28.5773 30.1013 29.2578 30.2591 29.9875 30.2591C30.706 30.2591 31.3842 30.1013 32.0109 29.814C34.6365 28.6277 36.4495 25.3187 37.2889 22.8211C37.8261 22.9154 39.0527 22.2642 39.2944 21.3169C39.5473 20.3345 39.3056 19.4223 38.7639 19.2754C38.5983 19.2293 38.4327 19.2666 38.2693 19.3521V16.0146C38.2693 11.2913 34.5626 8.36174 29.9897 8.36174C25.419 8.36174 21.7124 11.2913 21.7124 16.0146V19.3521C21.5445 19.2666 21.3789 19.2293 21.2177 19.2754C20.676 19.4289 20.4365 20.3411 20.6872 21.3169ZM24.2976 30.5486L23.9194 31.3117L23.8186 31.5134L24.4677 31.8818L28.2998 34.0527L29.1436 32.3621L27.2746 31.3051L26.3905 30.803L25.5063 30.3008L24.6602 29.8206L24.2976 30.5486ZM6.82528 23.707L6.92153 23.8825C7.45872 25.5095 8.58012 27.4962 10.1268 28.1979C10.523 28.3711 10.9281 28.461 11.3355 28.461C11.7406 28.461 12.1413 28.3711 12.5308 28.1913C14.0842 27.4918 15.219 25.5051 15.7629 23.889L15.8211 23.718L16.0046 23.7531C16.3091 23.7531 16.9089 23.4154 17.0276 22.9483C17.1753 22.3738 17.0164 21.9528 16.8395 21.9067L16.5329 22.0646L16.374 21.7532V19.6372C16.374 16.9049 14.3035 14.9994 11.3377 14.9994C8.3742 14.9994 6.30375 16.9049 6.30375 19.6372V22.0909L5.99934 21.933C5.66135 21.9506 5.50243 22.3738 5.65016 22.9439C5.77103 23.422 6.36418 23.7487 6.6395 23.7487L6.82528 23.707ZM12.5017 30.7745L14.975 29.3711L14.6258 28.665L12.1503 30.0728L12.5017 30.7745ZM10.1761 30.7679L10.5275 30.0684L8.05188 28.6606L7.68032 29.4105L7.94444 29.5048L10.1761 30.7679ZM6.66188 36.7959H13.3187L13.5492 35.546C13.8424 33.9321 15.3578 32.3971 16.9985 32.0594L20.2597 31.3819C20.0045 31.1078 19.68 30.8841 19.3532 30.8205L16.0449 30.1364L12.5531 32.1932C12.4524 32.248 12.345 32.2787 12.2308 32.2787C11.8749 32.202 11.7317 32.0814 11.6556 31.9279L11.3422 31.2985L11.0289 31.9279C10.9505 32.0814 10.8095 32.202 10.6416 32.2524C10.6298 32.2531 10.6183 32.2537 10.607 32.2544C10.5434 32.258 10.4881 32.2612 10.4424 32.2612C10.2813 32.2612 10.2029 32.2393 10.1313 32.1932L6.54549 30.1583L3.33126 30.8227C2.72243 30.9521 2.09122 31.5902 1.98155 32.1888L1.29214 35.9868C1.24961 36.2148 1.29662 36.4231 1.4242 36.5657C1.55179 36.7148 1.751 36.7959 1.98378 36.7959H5.38156V34.9583C5.38156 34.6163 5.66807 34.3334 6.02172 34.3334C6.37538 34.3334 6.66188 34.6163 6.66188 34.9583V36.7959ZM57.9956 36.7937C58.2306 36.7937 58.4298 36.7126 58.5552 36.5657C58.6828 36.4209 58.7298 36.2148 58.7029 35.9758L58.0135 32.1801C57.9016 31.577 57.2704 30.9389 56.6616 30.8139L53.3533 30.1298L49.8593 32.1866C49.7586 32.2393 49.6489 32.2721 49.5347 32.2721C49.1788 32.1954 49.0356 32.0748 48.9595 31.9213L48.6439 31.292L48.326 31.9213C48.2499 32.0748 48.1045 32.1954 47.9388 32.2436C47.9273 32.2443 47.916 32.2449 47.905 32.2456C47.841 32.2492 47.7851 32.2524 47.7374 32.2524C47.5762 32.2524 47.5001 32.2327 47.4285 32.1866L43.8404 30.1495L40.6262 30.8161C40.3017 30.8819 39.9749 31.1034 39.7219 31.3775L42.9787 32.0573C44.6194 32.3949 46.1347 33.9321 46.4279 35.5504L46.6607 36.7937H53.3197V34.954C53.3197 34.6141 53.6063 34.3312 53.9599 34.3312C54.3136 34.3312 54.6001 34.6141 54.6001 34.954V36.7937H57.9956Z" fill="#40BAFF"/>
<path d="M25.9814 53.6044C26.0656 53.6453 26.1584 53.6666 26.2525 53.6666H34.7373C34.8981 53.6666 35.0522 53.6045 35.1659 53.4938C36.062 52.6215 36.5555 51.4617 36.5555 50.228V44.8171C36.5555 43.8411 35.7399 43.0472 34.7373 43.0472C34.5007 43.0472 34.2747 43.0919 34.0672 43.1723C33.8569 42.4212 33.1504 41.8672 32.3131 41.8672C32.0764 41.8672 31.8505 41.9119 31.6429 41.9923C31.4326 41.2413 30.7261 40.6873 29.8888 40.6873C29.6764 40.6873 29.4725 40.7233 29.2828 40.7888V37.6588C29.2828 36.6828 28.4671 35.8889 27.4646 35.8889C26.462 35.8889 25.6464 36.6828 25.6464 37.6588V44.2271H25.0404C24.0378 44.2271 23.2222 45.0211 23.2222 45.997V49.2583C23.2222 50.1613 23.4799 51.0447 23.9677 51.8128C24.4553 52.581 25.1517 53.2005 25.9814 53.6044ZM24.4343 45.997C24.4343 45.6717 24.7062 45.407 25.0404 45.407H25.6464V47.9434C25.6464 48.2692 25.9178 48.5333 26.2525 48.5333C26.5872 48.5333 26.8585 48.2692 26.8585 47.9434V37.6588C26.8585 37.3335 27.1304 37.0688 27.4646 37.0688C27.7988 37.0688 28.0707 37.3335 28.0707 37.6588V45.997C28.0707 46.3228 28.342 46.587 28.6767 46.587C29.0114 46.587 29.2828 46.3228 29.2828 45.997V42.4572C29.2828 42.1319 29.5547 41.8672 29.8888 41.8672C30.223 41.8672 30.4949 42.1319 30.4949 42.4572V45.997C30.4949 46.3228 30.7663 46.587 31.101 46.587C31.4357 46.587 31.707 46.3228 31.707 45.997V43.6371C31.707 43.3118 31.9789 43.0472 32.3131 43.0472C32.6473 43.0472 32.9191 43.3118 32.9191 43.6371V45.997C32.9191 46.3228 33.1905 46.587 33.5252 46.587C33.8599 46.587 34.1313 46.3228 34.1313 45.997V44.8171C34.1313 44.4918 34.4031 44.2271 34.7373 44.2271C35.0715 44.2271 35.3434 44.4918 35.3434 44.8171V50.228C35.3434 51.0673 35.0366 51.8606 34.4747 52.4867H26.401C25.1843 51.8407 24.4343 50.6159 24.4343 49.2583V45.997Z" fill="#40BAFF"/>
</g>
<defs>
<clipPath id="clip0">
<rect width="60" height="60" fill="white"/>
</clipPath>
</defs>
</svg>
